<svg width="20" height="20" viewBox="0 0 20 20" fill="none" xmlns="http://www.w3.org/2000/svg">
<path d="M17.7917 9.24996H10.15V11.525H15.575C15.3 14.7 12.6583 16.0583 10.1583 16.0583C6.96667 16.0583 4.16667 13.5416 4.16667 9.99996C4.16667 6.58329 6.83333 3.94163 10.1667 3.94163C12.7417 3.94163 14.25 5.58329 14.25 5.58329L15.8333 3.93329C15.8333 3.93329 13.8 1.66663 10.0833 1.66663C5.35 1.66663 1.69167 5.66663 1.69167 9.99996C1.69167 14.2083 5.13333 18.3333 10.2083 18.3333C14.6667 18.3333 17.9167 15.275 17.9167 10.7583C17.9167 9.79996 17.7917 9.24996 17.7917 9.24996Z" fill="#F5B943"/>
</svg>
