<svg width="168" height="29" viewBox="0 0 168 29" fill="none" xmlns="http://www.w3.org/2000/svg">
<path d="M13.816 28.36L4.384 6.148C4.072 5.404 3.676 4.804 3.196 4.348C2.74 3.868 2.068 3.544 1.18 3.376L0.46 3.232V2.332L5.824 2.44L11.188 2.332V3.232L10.108 3.34C9.364 3.412 8.764 3.604 8.308 3.916C7.876 4.204 7.66 4.648 7.66 5.248C7.66 5.68 7.792 6.22 8.056 6.868L15.328 24.112L22.312 6.832C22.456 6.496 22.552 6.196 22.6 5.932C22.672 5.644 22.708 5.392 22.708 5.176C22.708 4.6 22.516 4.18 22.132 3.916C21.748 3.628 21.22 3.448 20.548 3.376L19.288 3.232V2.332L24.328 2.44L27.928 2.332V3.196L27.1 3.376C26.188 3.568 25.48 3.94 24.976 4.492C24.472 5.044 24.016 5.836 23.608 6.868L14.968 28.36H13.816ZM28.8423 28.108V27.208L29.5623 27.136C30.4023 27.04 31.0383 26.92 31.4703 26.776C31.9263 26.608 32.2383 26.272 32.4063 25.768C32.5743 25.24 32.6583 24.388 32.6583 23.212V7.228C32.6583 6.028 32.5743 5.176 32.4063 4.672C32.2383 4.168 31.9263 3.844 31.4703 3.7C31.0383 3.532 30.4023 3.4 29.5623 3.304L28.8423 3.232V2.332L34.1703 2.44H34.2063L39.5343 2.332V3.232L38.8143 3.304C37.9983 3.4 37.3623 3.532 36.9063 3.7C36.4503 3.844 36.1383 4.168 35.9703 4.672C35.8023 5.176 35.7183 6.028 35.7183 7.228V23.212C35.7183 24.388 35.8023 25.24 35.9703 25.768C36.1383 26.272 36.4503 26.608 36.9063 26.776C37.3623 26.92 37.9983 27.04 38.8143 27.136L39.5343 27.208V28.108L34.2063 28H34.1703L28.8423 28.108ZM42.4127 28.108V27.208L43.1327 27.136C43.9727 27.04 44.6087 26.92 45.0407 26.776C45.4967 26.608 45.8087 26.272 45.9767 25.768C46.1447 25.24 46.2287 24.388 46.2287 23.212V7.228C46.2287 6.028 46.1447 5.176 45.9767 4.672C45.8087 4.168 45.4967 3.844 45.0407 3.7C44.6087 3.532 43.9727 3.4 43.1327 3.304L42.4127 3.232V2.332L47.7407 2.44H52.6367C54.0767 2.44 55.4207 2.536 56.6687 2.728C57.9167 2.896 59.0087 3.232 59.9447 3.736C60.8807 4.216 61.6127 4.924 62.1407 5.86C62.6687 6.796 62.9327 8.008 62.9327 9.496C62.9327 11.632 62.1287 13.36 60.5207 14.68C58.9127 16 56.5727 16.66 53.5007 16.66H49.2887V23.212C49.2887 24.388 49.3847 25.24 49.5767 25.768C49.7927 26.272 50.1647 26.608 50.6927 26.776C51.2207 26.92 51.9647 27.04 52.9247 27.136L53.7167 27.208V28.108L47.6327 28L42.4127 28.108ZM54.0407 3.448H49.2887V15.58H53.5007C55.1567 15.58 56.4167 15.34 57.2807 14.86C58.1447 14.38 58.7327 13.684 59.0447 12.772C59.3567 11.86 59.5127 10.768 59.5127 9.496C59.5127 8.128 59.3327 7.048 58.9727 6.256C58.6367 5.44 58.1807 4.828 57.6047 4.42C57.0527 4.012 56.4527 3.748 55.8047 3.628C55.1807 3.508 54.5927 3.448 54.0407 3.448ZM60.753 28.108V27.208L61.077 27.172C61.917 27.052 62.601 26.884 63.129 26.668C63.681 26.452 64.149 26.104 64.533 25.624C64.941 25.12 65.325 24.436 65.685 23.572L74.397 2.44H75.621L84.117 23.572C84.597 24.748 85.113 25.612 85.665 26.164C86.217 26.716 86.973 27.04 87.933 27.136L88.653 27.208V28.108L84.189 28L78.429 28.108V27.208L79.149 27.136C79.989 27.04 80.589 26.86 80.949 26.596C81.309 26.332 81.489 25.96 81.489 25.48C81.489 25 81.321 24.352 80.985 23.536L79.113 18.856H68.961L67.017 23.536C66.849 23.968 66.705 24.364 66.585 24.724C66.465 25.06 66.405 25.36 66.405 25.624C66.405 26.08 66.597 26.428 66.981 26.668C67.389 26.908 68.049 27.064 68.961 27.136L69.681 27.208V28.108L65.109 28L60.753 28.108ZM69.429 17.704H78.681L74.145 6.292L69.429 17.704ZM95.1513 28.324L88.0953 6.616C87.7833 5.584 87.3513 4.84 86.7993 4.384C86.2473 3.904 85.5873 3.58 84.8193 3.412L83.9912 3.232V2.332L89.3913 2.44L94.7193 2.332V3.232L93.7113 3.34C93.0633 3.412 92.4513 3.556 91.8753 3.772C91.3233 3.988 91.0473 4.468 91.0473 5.212C91.0473 5.572 91.1313 5.992 91.2993 6.472L96.8073 23.464L103.071 6.436C103.215 6.004 103.287 5.644 103.287 5.356C103.287 4.804 103.083 4.384 102.675 4.096C102.267 3.784 101.715 3.58 101.019 3.484L99.5793 3.268L99.7233 2.332L101.235 2.512C102.963 2.704 104.019 3.232 104.403 4.096C104.763 3.376 105.291 2.92 105.987 2.728C106.707 2.536 107.391 2.428 108.039 2.404L109.371 2.332L109.443 3.268L108.075 3.376C106.515 3.496 105.735 4.156 105.735 5.356C105.735 5.86 105.855 6.424 106.095 7.048L112.107 23.356L117.399 6.04C117.519 5.608 117.579 5.26 117.579 4.996C117.579 4.468 117.399 4.096 117.039 3.88C116.679 3.664 116.151 3.508 115.455 3.412L114.267 3.268V2.332L119.019 2.44L122.835 2.332V3.268L121.971 3.412C121.179 3.532 120.495 3.772 119.919 4.132C119.367 4.468 118.995 4.972 118.803 5.644L111.891 28.324H110.739L103.467 8.92L96.3033 28.324H95.1513ZM123.693 28.144V27.244L124.413 27.172C125.253 27.076 125.889 26.956 126.321 26.812C126.777 26.668 127.089 26.332 127.257 25.804C127.425 25.276 127.509 24.412 127.509 23.212V4.636C127.293 4.372 126.969 4.084 126.537 3.772C126.105 3.436 125.469 3.268 124.629 3.268H123.549V2.332L130.533 2.44C130.965 3.04 131.541 3.832 132.261 4.816C133.005 5.8 133.821 6.892 134.709 8.092C135.621 9.292 136.557 10.528 137.517 11.8C138.477 13.048 139.401 14.26 140.289 15.436C141.201 16.612 142.017 17.668 142.737 18.604C143.457 19.54 144.021 20.284 144.429 20.836V7.228C144.429 6.028 144.345 5.176 144.177 4.672C144.009 4.144 143.697 3.808 143.241 3.664C142.809 3.496 142.173 3.376 141.333 3.304L140.613 3.232V2.332L145.293 2.44L149.685 2.332V3.232L148.965 3.304C148.149 3.4 147.513 3.532 147.057 3.7C146.601 3.844 146.289 4.168 146.121 4.672C145.953 5.176 145.869 6.028 145.869 7.228V28H144.789C144.405 27.208 143.829 26.236 143.061 25.084C142.317 23.908 141.453 22.624 140.469 21.232C139.485 19.84 138.453 18.424 137.373 16.984C136.317 15.52 135.261 14.104 134.205 12.736C133.149 11.368 132.165 10.12 131.253 8.992C130.341 7.864 129.573 6.928 128.949 6.184V23.212C128.949 24.412 129.033 25.276 129.201 25.804C129.369 26.332 129.681 26.668 130.137 26.812C130.593 26.956 131.229 27.076 132.045 27.172L132.765 27.244V28.144L128.157 28L123.693 28.144ZM159.724 16.2376C158.557 16.2376 157.484 16.036 156.505 15.6328C155.54 15.2152 154.698 14.6464 153.978 13.9264C153.272 13.192 152.725 12.3424 152.336 11.3776C151.948 10.4128 151.753 9.3832 151.753 8.2888C151.753 7.1944 151.948 6.172 152.336 5.2216C152.725 4.2568 153.272 3.4144 153.978 2.6944C154.698 1.96 155.54 1.3912 156.505 0.987999C157.484 0.570399 158.557 0.361599 159.724 0.361599C160.876 0.361599 161.927 0.570399 162.877 0.987999C163.842 1.3912 164.677 1.96 165.383 2.6944C166.103 3.4144 166.657 4.2568 167.046 5.2216C167.435 6.172 167.629 7.1944 167.629 8.2888C167.629 9.3832 167.435 10.4128 167.046 11.3776C166.657 12.3424 166.103 13.192 165.383 13.9264C164.677 14.6464 163.842 15.2152 162.877 15.6328C161.927 16.036 160.876 16.2376 159.724 16.2376ZM159.724 15.3952C160.746 15.3952 161.682 15.208 162.532 14.8336C163.381 14.4592 164.116 13.948 164.735 13.3C165.368 12.6376 165.858 11.8816 166.204 11.032C166.549 10.168 166.722 9.2536 166.722 8.2888C166.722 7.3384 166.549 6.4384 166.204 5.5888C165.858 4.7248 165.368 3.9688 164.735 3.3208C164.116 2.6584 163.381 2.14 162.532 1.7656C161.682 1.3912 160.746 1.204 159.724 1.204C158.687 1.204 157.736 1.3912 156.872 1.7656C156.023 2.14 155.281 2.6584 154.648 3.3208C154.014 3.9688 153.524 4.7248 153.179 5.5888C152.833 6.4384 152.66 7.3384 152.66 8.2888C152.66 9.2536 152.833 10.168 153.179 11.032C153.524 11.8816 154.014 12.6376 154.648 13.3C155.281 13.948 156.023 14.4592 156.872 14.8336C157.736 15.208 158.687 15.3952 159.724 15.3952ZM162.791 12.2632C162.344 12.2632 162.013 12.1264 161.797 11.8528C161.581 11.5792 161.444 11.2408 161.387 10.8376C161.329 10.4488 161.228 10.0744 161.084 9.7144C160.94 9.3544 160.696 9.052 160.35 8.8072C160.004 8.5624 159.479 8.4328 158.773 8.4184H158.557V10.6648C158.557 11.1544 158.629 11.4496 158.773 11.5504C158.932 11.6368 159.234 11.7016 159.68 11.7448L159.918 11.7664V12.1768L157.909 12.1336L155.944 12.1768V11.7664L156.181 11.7448C156.599 11.7016 156.872 11.6368 157.002 11.5504C157.146 11.4496 157.218 11.1544 157.218 10.6648L157.24 5.8048C157.24 5.3152 157.168 5.0272 157.024 4.9408C156.88 4.8544 156.599 4.7896 156.181 4.7464L155.944 4.7032L155.965 4.3144L157.736 4.3576H159.421C160.012 4.3576 160.552 4.4152 161.041 4.5304C161.545 4.6456 161.948 4.84 162.251 5.1136C162.568 5.3872 162.726 5.7688 162.726 6.2584C162.726 6.9352 162.481 7.432 161.992 7.7488C161.516 8.0512 160.962 8.2456 160.328 8.332C160.962 8.3752 161.48 8.5552 161.884 8.872C162.301 9.1888 162.553 9.6352 162.64 10.2112C162.755 10.744 162.884 11.1184 163.028 11.3344C163.187 11.5504 163.36 11.6512 163.547 11.6368L163.914 11.5936L163.979 12.004C163.849 12.0616 163.676 12.1192 163.46 12.1768C163.244 12.2344 163.021 12.2632 162.791 12.2632ZM158.557 7.9648H159.27C159.976 7.9648 160.465 7.828 160.739 7.5544C161.012 7.2808 161.149 6.8704 161.149 6.3232C161.149 5.8336 161.02 5.4592 160.76 5.2C160.516 4.9264 160.076 4.7896 159.443 4.7896H158.557V7.9648Z" fill="black"/>
</svg>
