<svg width="1340" height="265" viewBox="0 0 1340 265" fill="none" xmlns="http://www.w3.org/2000/svg">
<path d="M24.658 3.63781V241.494H46.3451V265H0V3.63781H24.658Z" fill="#F5B943"/>
<path d="M135.12 3.63781V232.819C135.12 254.273 124.029 265 101.846 265H97.3902C85.5068 265 76.9904 262.202 71.841 256.605C66.6915 250.822 64.1168 242.893 64.1168 232.819V3.63781H88.7748V229.741C88.7748 233.472 89.4679 236.457 90.8543 238.696C92.4388 240.748 95.3106 241.774 99.4698 241.774C103.629 241.774 106.501 240.748 108.085 238.696C109.67 236.457 110.462 233.472 110.462 229.741V3.63781H135.12Z" fill="#F5B943"/>
<path d="M224.194 75.2746C224.194 87.7737 222.808 97.8476 220.035 105.496C217.262 112.958 211.816 122.193 203.695 133.2C211.816 144.206 217.262 153.441 220.035 160.903C222.808 168.178 224.194 177.973 224.194 190.285V265H199.239V186.927C199.239 180.025 198.447 174.241 196.862 169.578C195.476 164.914 192.703 159.597 188.544 153.627C184.187 159.597 181.216 164.914 179.631 169.578C178.245 174.241 177.552 180.025 177.552 186.927V265H152.894V190.285C152.894 177.973 154.28 168.085 157.053 160.623C159.826 153.161 165.272 144.02 173.393 133.2C165.272 122.193 159.826 112.958 157.053 105.496C154.28 97.8476 152.894 87.7737 152.894 75.2746V3.63781H177.552V78.3527C177.552 85.6283 178.245 91.6913 179.631 96.5417C181.216 101.206 184.187 106.709 188.544 113.052C192.703 106.895 195.476 101.485 196.862 96.8216C198.447 91.9711 199.239 85.8149 199.239 78.3527V3.63781H224.194V75.2746Z" fill="#F5B943"/>
<path d="M312.964 3.63781V232.819C312.964 254.273 301.873 265 279.691 265H275.234C263.351 265 254.835 262.202 249.685 256.605C244.536 250.822 241.961 242.893 241.961 232.819V3.63781H266.619V229.741C266.619 233.472 267.312 236.457 268.699 238.696C270.283 240.748 273.155 241.774 277.314 241.774C281.473 241.774 284.345 240.748 285.929 238.696C287.514 236.457 288.306 233.472 288.306 229.741V3.63781H312.964Z" fill="#F5B943"/>
<path d="M401.741 265H377.38L377.083 184.968C377.083 178.252 376.39 172.656 375.004 168.178C373.617 163.515 370.943 158.384 366.982 152.788C362.427 159.317 359.357 165.007 357.773 169.857C356.188 174.708 355.396 180.957 355.396 188.606V265H330.738V3.63781H368.468C390.65 3.63781 401.741 14.4579 401.741 36.0982V76.3939C401.741 88.7064 400.454 98.5005 397.879 105.776C395.304 113.052 390.155 121.913 382.431 132.36C389.957 142.434 395.007 151.109 397.582 158.384C400.355 165.473 401.741 174.894 401.741 186.647V265ZM377.083 38.8965C377.083 35.1654 376.291 32.2738 374.707 30.2218C373.32 27.9831 370.547 26.8638 366.388 26.8638H355.396V127.603C355.99 127.043 356.386 126.484 356.584 125.924C356.981 125.364 357.377 124.898 357.773 124.525C365.695 114.264 370.844 106.429 373.221 101.019C375.796 95.4224 377.083 88.3333 377.083 79.7518V38.8965Z" fill="#F5B943"/>
<path d="M489.627 3.63781V265H464.969V186.647C464.969 178.439 463.682 171.63 461.107 166.22C458.73 160.623 453.581 152.694 445.659 142.434C437.736 132.174 431.993 124.058 428.428 118.089C424.863 112.119 422.288 105.963 420.704 99.6199C419.317 93.277 418.624 85.2552 418.624 75.5544V3.63781H443.282V78.3527C443.282 87.3073 444.47 94.6762 446.847 100.459C449.224 106.056 454.373 113.985 462.295 124.245L464.969 127.883V3.63781H489.627Z" fill="#F5B943"/>
<path d="M604.923 3.63781C627.106 3.63781 638.197 14.4579 638.197 36.0982V75.2746C638.197 84.9754 637.405 92.9972 635.82 99.34C634.236 105.683 631.661 111.839 628.096 117.809C624.729 123.592 619.084 131.707 611.162 142.154C603.042 152.601 597.695 160.53 595.12 165.94C592.743 171.35 591.555 178.346 591.555 186.927V265H566.897V3.63781H604.923ZM591.555 26.8638V127.603C593.337 125.364 594.328 124.152 594.526 123.965C602.448 113.705 607.597 105.776 609.974 100.18C612.351 94.5829 613.539 87.3073 613.539 78.3527V38.8965C613.539 35.1654 612.747 32.2738 611.162 30.2218C609.578 27.9831 606.706 26.8638 602.547 26.8638H591.555Z" fill="#F5B943"/>
<path d="M643.751 265L658.308 3.63781H700.197L714.754 265H691.879L688.908 210.433L684.749 216.03C679.599 222.746 675.836 228.156 673.459 232.26C671.083 236.364 669.498 240.375 668.706 244.293C667.914 248.024 667.32 253.154 666.924 259.683L666.626 265H643.751ZM670.488 194.483C677.024 185.715 681.184 178.999 682.966 174.335C684.749 169.671 685.64 163.048 685.64 154.467L679.104 38.6167L670.488 194.483Z" fill="#F5B943"/>
<path d="M835.978 3.63781H811.32L800.625 170.697L789.633 3.63781H764.975L754.28 170.697L742.991 3.63781H718.63L742.397 265H766.758L777.453 97.9409L788.742 265H813.4L835.978 3.63781Z" fill="#F5B943"/>
<path d="M924.83 3.63781V265H900.766L877.296 121.447V265H853.827V3.63781H877.296L900.766 144.952V3.63781H924.83Z" fill="#F5B943"/>
<path d="M1026.74 78.3527C1026.74 87.3073 1027.92 94.5829 1030.3 100.18C1032.68 105.776 1037.83 113.705 1045.75 123.965C1053.67 134.412 1059.42 142.527 1062.98 148.31C1066.55 154.094 1069.12 160.157 1070.7 166.499C1072.29 172.656 1073.08 180.584 1073.08 190.285V232.819C1073.08 254.273 1061.99 265 1039.81 265H1035.35C1023.47 265 1014.95 262.202 1009.8 256.605C1004.65 250.822 1002.08 242.893 1002.08 232.819V167.619H1026.74V229.741C1026.74 233.472 1027.43 236.457 1028.82 238.696C1030.4 240.748 1033.27 241.774 1037.43 241.774C1041.59 241.774 1044.46 240.748 1046.05 238.696C1047.63 236.457 1048.42 233.472 1048.42 229.741V186.927C1048.42 178.346 1047.14 171.35 1044.56 165.94C1042.18 160.53 1037.04 152.601 1029.11 142.154C1021.19 131.894 1015.45 123.779 1011.88 117.809C1008.32 111.839 1005.74 105.683 1004.16 99.34C1002.77 92.9972 1002.08 84.9754 1002.08 75.2746V32.1806C1002.08 21.9201 1004.65 13.9916 1009.8 8.39492C1014.95 2.79831 1023.47 0 1035.35 0H1039.81C1061.99 0 1073.08 10.7269 1073.08 32.1806V97.9409H1048.42V35.2587C1048.42 31.5276 1047.63 28.636 1046.05 26.5839C1044.46 24.3453 1041.59 23.226 1037.43 23.226C1033.27 23.226 1030.4 24.3453 1028.82 26.5839C1027.43 28.636 1026.74 31.5276 1026.74 35.2587V78.3527Z" fill="#F5B943"/>
<path d="M1090.86 3.63781V265H1115.22L1115.51 186.927C1115.51 178.346 1116.7 171.35 1119.08 165.94C1121.65 160.343 1126.9 152.415 1134.82 142.154L1137.2 139.076V265H1161.86V3.63781H1137.2V78.3527C1137.2 87.3073 1136.01 94.5829 1133.64 100.18C1131.26 105.776 1126.11 113.705 1118.19 123.965C1116.4 126.204 1115.41 127.416 1115.22 127.603V3.63781H1090.86Z" fill="#F5B943"/>
<path d="M1217.65 0C1239.83 0 1250.93 10.7269 1250.93 32.1806V232.819C1250.93 254.273 1239.83 265 1217.65 265H1230.72H1213.2C1201.31 265 1192.8 262.202 1187.65 256.605C1182.5 250.822 1179.92 242.893 1179.92 232.819V32.1806C1179.92 21.9201 1182.5 13.9916 1187.65 8.39492C1192.8 2.79831 1201.31 0 1213.2 0H1227.75H1217.65ZM1226.27 35.2587C1226.27 31.5276 1225.48 28.636 1223.89 26.5839C1222.31 24.3453 1219.44 23.226 1215.28 23.226C1211.12 23.226 1208.24 24.3453 1206.66 26.5839C1205.27 28.636 1204.58 31.5276 1204.58 35.2587V229.741C1204.58 233.472 1205.27 236.457 1206.66 238.696C1208.24 240.748 1211.12 241.774 1215.28 241.774C1219.44 241.774 1222.31 240.748 1223.89 238.696C1225.48 236.457 1226.27 233.472 1226.27 229.741V35.2587Z" fill="#F5B943"/>
<path d="M1306.73 3.63781C1328.91 3.63781 1340 14.4579 1340 36.0982V75.2746C1340 84.9754 1339.21 92.9972 1337.62 99.34C1336.04 105.683 1333.46 111.839 1329.9 117.809C1326.53 123.592 1320.89 131.707 1312.97 142.154C1304.85 152.601 1299.5 160.53 1296.92 165.94C1294.55 171.35 1293.36 178.346 1293.36 186.927V265H1268.7V3.63781H1306.73ZM1293.36 26.8638V127.603C1295.14 125.364 1296.13 124.152 1296.33 123.965C1304.25 113.705 1309.4 105.776 1311.78 100.18C1314.15 94.5829 1315.34 87.3073 1315.34 78.3527V38.8965C1315.34 35.1654 1314.55 32.2738 1312.97 30.2218C1311.38 27.9831 1308.51 26.8638 1304.35 26.8638H1293.36Z" fill="#F5B943"/>
</svg>
