<svg width="104" height="29" viewBox="0 0 104 29" fill="none" xmlns="http://www.w3.org/2000/svg">
<g clip-path="url(#clip0_1106_739)">
<path d="M64.6053 21.7688C64.5997 21.7801 64.5969 21.7857 64.5941 21.7914C64.6335 21.7209 64.6701 21.6533 64.7096 21.5829C64.7068 21.5829 64.6391 21.7069 64.6053 21.7688Z" fill="white" fill-opacity="0.34"/>
<path d="M72.652 11.4168C73.3676 11.4168 73.948 10.8364 73.948 10.1236C73.948 9.40792 73.3676 8.82751 72.652 8.82751C71.9363 8.82751 71.3587 9.40792 71.3587 10.1236C71.3587 10.8364 71.9391 11.4168 72.652 11.4168Z" fill="white" fill-opacity="0.34"/>
<path d="M34.7225 17.3503C34.7111 17.3786 34.7026 17.3984 34.6998 17.4069C34.6771 17.5429 34.697 17.5004 34.7225 17.3503Z" fill="white" fill-opacity="0.34"/>
<path d="M101.943 14.4425C99.9621 14.3918 96.0599 17.5361 95.595 18.0039L97.6208 14.5158L94.5638 14.5271C90.6277 21.2073 82.4119 27.6848 78.7435 27.8144C75.433 28.0539 75.1963 25.6928 76.2839 22.9035C76.2839 22.9035 76.281 22.9035 76.2782 22.9035C76.281 22.9035 76.281 22.9035 76.2839 22.9035V22.9345C80.9722 23.4106 89.1908 18.6068 86.6156 15.037C84.4011 12.8394 78.4646 15.1525 74.6666 20.2043L74.4046 20.5875L73.8439 21.4102C72.5 23.2021 69.7642 25.7801 69.7642 25.7801C66.2226 29.2541 64.6222 27.2227 66.1211 24.7151L71.9618 14.5806H69.319C68.5949 15.5724 65.0618 22.0723 59.3141 26.138C56.0627 28.623 53.5241 27.5552 55.7837 24.3179L61.4835 14.5834L64.6645 14.5721L65.0815 14.1382H61.8329L65.2759 8.10035L62.3936 8.11162C60.8609 10.7037 57.2855 16.7613 53.6875 18.2969C54.3327 17.4432 54.0961 16.3077 54.0961 16.3077C53.8284 14.9976 52.3718 14.8708 52.3718 14.8708C52.3718 14.8708 50.3037 14.5581 47.9229 16.6627L49.1964 14.5609L46.2972 14.5721C43.7615 19.0745 37.0164 28.6653 33.3452 27.7468C32.3534 27.3129 32.2915 26.0619 33.3339 24.3686L39.1521 14.5383L36.2698 14.5496C35.864 15.1469 34.8723 17.0008 34.7173 17.3586C34.692 17.508 34.6694 17.5502 34.6948 17.415C34.6976 17.4065 34.7061 17.3868 34.7173 17.3586C34.8159 16.7754 34.9822 14.4933 32.7394 14.0425C32.2464 13.9382 31.8942 13.9072 31.4011 13.9016C28.9302 13.8734 26.4339 15.1638 23.9827 17.3333C22.2584 18.8576 20.6242 20.9002 19.238 23.4304C13.3184 28.8653 7.23264 29.178 5.2463 27.1466C3.14445 24.9828 2.31892 20.5396 6.22397 13.0451C7.58482 11.0615 12.7099 2.62877 20.0692 0.68188C25.5745 -0.774766 27.8173 2.31321 28.006 5.92243C28.006 5.92243 29.6712 2.78937 31.5392 0.845295C30.3981 1.33554 27.8624 1.92158 26.679 1.21157C23.1205 -1.06215 16.2486 -0.732504 7.45804 7.44951C-0.0844023 15.1046 -5.44892 29.9698 9.51199 28.8118C14.8089 28.1525 19.2493 23.946 19.2493 23.946C18.5562 26.5014 19.6832 28.4399 21.8639 28.8146C22.6669 28.9639 23.8108 28.7526 24.78 28.3835C25.5914 28.0482 27.2989 27.3636 29.5331 25.5998C28.8428 28.3976 33.1705 32.5759 41.1412 22.7063L37.4447 28.6596L40.8087 28.6484C40.8087 28.6484 46.4353 18.7308 47.4524 17.708C49.6416 14.7891 53.6565 14.2509 53.6058 16.288C53.1607 16.0626 52.7718 16.0034 52.4394 16.0598C51.4786 16.2063 51.0504 17.4206 51.2448 18.249C51.3518 18.5307 51.5124 18.8237 51.9576 19.0322C51.9576 19.0322 53.8397 20.3367 58.3618 14.6708L57.7109 15.8372C57.7109 15.8372 53.1438 23.7036 52.5605 24.8222C50.2474 29.2569 55.7218 29.6739 59.0013 26.8677C59.0013 26.8677 61.6723 24.9095 64.7124 21.5849C64.6729 21.6553 64.6363 21.7229 64.5969 21.7934C64.5941 21.799 64.5941 21.799 64.5941 21.799C64.5941 21.799 64.5941 21.7962 64.5969 21.7934C63.0332 24.6165 61.3004 27.5016 63.5206 28.7442C64.163 29.0315 65.8788 29.2316 68.0286 27.7101C68.0286 27.7101 71.4603 24.8842 73.2691 22.5936C72.5028 24.3742 71.7956 27.265 74.9033 28.5892C76.6529 29.1358 78.0786 28.7808 79.8226 28.1947C85.3196 26.4 92.338 18.3532 92.338 18.3532C92.338 18.3532 86.3959 28.2455 86.2014 28.6089L89.2303 28.5976C89.2303 28.5976 93.5128 21.3341 94.3835 20.1085C96.7304 16.4317 101.802 13.91 102.329 15.1892C100.45 14.8173 99.9875 17.5953 101.467 18.1616C103.791 19.0491 105.132 14.606 101.943 14.4425ZM83.722 14.6257C84.5307 14.7046 84.9195 15.1272 84.8434 16.2626C84.5898 18.7026 80.9891 22.7119 76.4078 22.5795C77.9884 18.8266 81.8033 14.4623 83.722 14.6257ZM28.5329 25.7858C27.6651 26.5324 26.5888 27.1297 26.5888 27.1297C22.1935 29.3443 21.199 26.924 21.6836 24.701C22.1006 22.7739 23.7995 19.9507 25.1998 18.2293C26.4649 16.8177 27.7919 15.7189 29.505 14.8792C33.1508 13.0901 35.3851 15.3357 33.8721 18.542C32.8944 20.6129 31.2715 23.4388 28.5329 25.7858Z" fill="white" fill-opacity="0.34"/>
<path d="M64.6058 21.7698C64.6398 21.7104 64.7106 21.5829 64.7106 21.5829C64.6511 21.6849 64.6228 21.7387 64.6058 21.7698Z" fill="white" fill-opacity="0.34"/>
</g>
<defs>
<clipPath id="clip0_1106_739">
<rect width="103.825" height="28.9413" fill="white"/>
</clipPath>
</defs>
</svg>
