<svg width="47" height="29" viewBox="0 0 47 29" fill="none" xmlns="http://www.w3.org/2000/svg">
<path fill-rule="evenodd" clip-rule="evenodd" d="M13.1294 18.4868C10.3917 22.6465 6.97871 23.8199 4.56106 23.8199C2.25035 23.8199 0.472473 22.8245 0.472473 21.082C0.472473 18.9846 3.2457 16.9934 5.66335 16.9934C6.80093 16.9934 7.79654 17.7048 7.79654 18.7357C7.79654 19.6957 6.9076 21.1884 4.59688 21.1884C3.70795 21.1884 3.03262 20.9044 3.03262 20.9044C3.03262 20.9044 3.77906 21.0464 4.4191 21.0464C6.37476 21.0464 7.26344 19.873 7.26344 18.8065C7.26344 17.3131 5.8414 17.1712 5.55694 17.1712C3.2104 17.1712 1.18389 19.0201 1.18389 21.0464C1.18389 22.8598 3.10373 23.6771 4.56133 23.6771C5.98337 23.6771 8.8277 23.3571 11.8143 18.9846C13.6627 16.318 16.1157 13.5806 19.7778 12.727C16.6846 13.9004 15.7248 14.5049 13.1294 18.4868Z" fill="white" fill-opacity="0.34"/>
<path fill-rule="evenodd" clip-rule="evenodd" d="M10.6765 21.865C11.7077 21.9005 13.2364 20.7624 13.2364 19.7671C13.2364 19.127 12.6674 18.9851 12.4188 18.9851C10.499 18.9851 9.14804 20.9405 9.14804 22.0069C9.14804 23.2159 10.2856 23.5712 10.8545 23.5712C12.8455 23.5712 15.4762 21.2249 15.4762 19.3759C15.4762 18.345 14.9431 18.309 14.552 18.309C14.2675 18.309 14.1253 18.3803 14.1253 18.487C14.1253 18.629 14.3387 18.7006 14.4453 18.7006C15.761 18.7006 18.1072 16.6738 18.1072 14.9318C18.1072 13.6873 16.9696 13.652 16.6496 13.652C14.5876 13.652 13.3077 15.3229 12.0632 17.0294C10.8545 18.7009 8.57886 20.9052 5.91257 21.5452C8.65023 20.5493 10.4634 18.5228 11.7432 16.7455C12.9877 15.0743 14.9787 13.3322 17.0763 13.3322C17.7164 13.3322 18.8539 13.6878 18.8539 14.8965C18.8539 16.6385 15.8676 18.8428 14.552 18.8428C13.9831 18.8428 13.912 18.6292 13.912 18.4873C13.912 18.2384 14.4451 18.0253 14.872 18.0253C15.4762 18.0253 16.3296 18.3809 16.3296 19.3762C16.3296 20.976 13.6986 23.749 10.7123 23.749C9.64558 23.749 8.72109 23.0737 8.72109 22.1497C8.72109 20.7982 10.5343 18.8075 12.5963 18.8075C13.2719 18.8075 13.6628 19.3056 13.6628 19.6609C13.6631 20.5135 12.3474 21.9716 10.6765 21.865ZM37.946 21.118C37.9099 21.118 37.8746 21.1536 37.839 21.1891C36.6301 22.3981 35.4928 23.287 34.8172 23.287C34.3547 23.287 34.1771 23.145 34.1771 22.5761C34.1771 22.4692 34.1771 22.3625 34.2127 22.2561C35.4925 22.2205 37.3054 21.3672 37.3054 20.4427C37.3054 20.2651 37.199 19.9807 36.7015 19.9807C35.9189 19.9807 34.71 20.7627 33.9635 21.5805C32.7546 22.967 31.8301 23.3223 31.6172 23.3223C31.4036 23.3223 31.1192 23.1803 31.6884 22.3978L33.4302 20.0515H32.5773L31.7239 21.1888C30.5861 22.7178 29.6977 23.3576 29.2352 23.3576C28.9863 23.3576 28.7018 23.1801 29.2707 22.3975L31.0486 20.0513H30.1597C29.1996 21.3311 28.7018 21.8647 26.3908 23.2156L28.7376 20.0513H27.8842L27.5287 20.5846C27.4575 20.0866 27.1378 19.9446 26.6397 19.9446C25.7863 19.9446 24.7199 20.6199 24.0443 21.3664C22.9778 22.5042 21.8044 23.3573 21.1644 23.3573C20.7735 23.3573 20.5957 23.2509 20.5957 22.7529C20.5957 22.5753 20.6313 22.3973 20.6668 22.2553C22.0178 22.2553 23.5112 21.0819 23.5112 20.4419C23.5112 20.2644 23.4045 20.0155 22.9067 20.0155C22.0178 20.0155 20.596 21.0108 20.0268 21.9709C19.3868 21.6508 19.6359 20.7619 20.738 20.051H19.7071L17.4672 22.4328C18.1072 21.5444 18.6403 20.7619 18.6403 20.4774C18.6403 20.2644 18.4981 20.0155 18.1428 20.0155C17.7161 20.0155 16.2941 20.9399 15.6185 21.7572C16.8627 20.6552 17.8583 20.2283 17.965 20.2283C18.1783 20.2283 18.1072 20.4419 18.0006 20.5844L15.7607 23.5707H16.6496L19.2806 20.7975C19.174 21.3308 19.4229 21.8644 19.956 22.1128C19.8137 22.3264 19.7426 22.5753 19.7426 22.7882C19.7426 23.3215 20.2404 23.6415 20.7738 23.6415C21.4491 23.6415 22.4092 23.0726 23.3337 22.2906C23.227 22.5042 23.1914 22.717 23.1914 22.8595C23.1914 23.1795 23.4403 23.6415 24.0093 23.6415C24.5782 23.6415 25.3246 23.286 25.9647 22.7882L25.2182 23.8907C25.0757 23.9618 24.9337 24.0687 24.7557 24.1396C22.0891 25.6325 19.9918 26.9479 19.9918 28.0148C19.9918 28.3704 20.2051 28.6193 20.6671 28.6193C21.8402 28.6193 23.6537 26.9126 25.6446 24.2107L26.1427 23.5707C27.4936 22.8242 28.3109 22.2909 29.0579 21.5444L28.7379 21.9709C27.8489 23.1798 28.7379 23.5351 29.1287 23.5351C29.6263 23.5351 30.2308 23.1087 30.7997 22.5751C30.6222 23.1795 30.9777 23.5351 31.4397 23.5351C31.9731 23.5351 32.7906 22.9662 33.466 22.3617C33.3976 22.4936 33.3611 22.6396 33.3596 22.7882C33.3596 23.3926 33.7504 23.6771 34.2485 23.6771C34.7105 23.6771 35.4575 23.3571 36.1684 22.8595C36.5592 22.5751 36.9862 22.255 37.4129 21.8642L36.2395 23.5707H37.022L42.4615 15.7133C42.1412 16.0341 40.1144 18.9137 37.946 21.118ZM36.3101 20.2291C36.7015 20.2291 36.6656 20.4427 36.6656 20.5491C36.6656 21.2249 35.3503 22.0781 34.2482 22.1133C34.5327 21.0471 35.7056 20.2291 36.3101 20.2291ZM22.4447 20.2291C22.8359 20.2291 22.8359 20.5491 22.8359 20.6205C22.8359 21.438 21.4138 22.0778 20.7024 22.1133C20.9869 21.0116 21.9822 20.2291 22.4447 20.2291ZM24.5065 23.2515C24.2582 23.2515 24.0445 23.2159 24.0445 22.6825C24.0445 21.5805 25.3244 20.1938 26.2844 20.1938C26.9244 20.1938 26.9953 20.6207 26.9953 20.8338C26.9953 22.1136 25.2535 23.2515 24.5065 23.2515ZM24.0801 25.5269C22.9781 27.0911 21.5913 28.5132 20.7382 28.5132C20.5246 28.5132 20.3471 28.4421 20.3471 28.1932C20.3471 27.0911 22.5158 25.5977 24.8265 24.2824C24.8979 24.2468 24.9335 24.2468 25.0046 24.2112L24.0801 25.5269Z" fill="white" fill-opacity="0.34"/>
<path fill-rule="evenodd" clip-rule="evenodd" d="M41.9978 19.0208H33.8565L34.1765 18.5583C34.354 18.7363 34.4609 18.7719 35.0649 18.7719C35.6338 18.8074 41.9978 18.9855 41.9978 18.9855C42.0689 18.9855 42.0689 19.0208 41.9978 19.0208ZM44.7002 20.2653C44.4157 20.4784 43.6332 21.7226 42.1403 21.7226C41.6423 21.7226 41.2869 21.4382 41.2869 20.9406C41.2869 19.6961 43.1359 18.7363 44.4866 18.7363C45.1266 18.7363 46.2639 18.8427 46.2639 20.3006C46.2639 22.2204 44.451 23.5003 42.6376 23.5003C41.3931 23.5003 40.6466 23.0022 39.1888 23.0022C37.4114 23.0022 36.7714 23.8556 36.5581 24.3892C36.6645 24.1403 37.3045 23.3222 38.9404 23.3222C40.0777 23.3222 41.0378 23.8556 42.2112 23.8556C44.131 23.8556 46.7618 22.1132 46.7618 20.2648C46.7618 19.3047 46.1928 18.5225 44.7708 18.5225C43.0285 18.5225 40.8955 19.8378 40.8955 21.1179C40.8955 21.4379 41.18 21.9713 42.0684 21.9713C43.4201 21.9718 44.4866 20.5492 44.7002 20.2653ZM27.5633 26.5224C27.5633 26.1315 27.3853 26.2024 27.3853 26.1668H28.5587C29.4832 26.1668 29.6251 26.9488 29.6251 27.1977C29.6251 27.8022 29.0212 28.1578 28.5587 28.1578H27.3853C27.3853 28.1578 27.5633 28.1933 27.5633 27.8022V26.5224ZM28.2745 26.2379H28.1325C28.0614 26.2379 28.0256 26.2735 28.0256 26.3093V27.8733C28.0256 27.9802 28.0616 28.0869 28.1681 28.0869H28.3456C28.737 28.0869 29.1281 27.7669 29.1281 27.1624C29.1278 26.9488 29.0212 26.2379 28.2745 26.2379ZM31.865 26.9133C31.9719 26.8068 32.1494 26.7357 32.3631 26.7357C32.6475 26.7357 33.0384 26.9846 33.0384 27.4466C33.0384 27.9086 32.6475 28.1931 32.2564 28.1931C32.1139 28.1931 31.9719 28.1575 31.865 28.0511V28.6556C31.865 28.9756 31.9719 28.94 32.0075 28.94H31.2966C31.2966 28.94 31.4386 28.9756 31.4386 28.6556V27.1266C31.4386 26.8777 31.2966 26.8777 31.261 26.8777L31.865 26.7357V26.9133ZM31.865 27.9089C31.9005 28.0158 31.9719 28.0869 32.1139 28.0869C32.3628 28.0869 32.5408 27.8733 32.5408 27.4824C32.5408 27.0916 32.3272 26.878 32.1494 26.878C32.043 26.878 31.9364 26.9491 31.865 27.0205V27.9089ZM35.4207 27.8377C35.4207 28.1933 35.5627 28.1222 35.5627 28.1578H34.8518C34.8874 28.1222 34.9938 28.1933 34.9938 27.8377V27.0913C34.9938 26.8424 34.8874 26.8424 34.8518 26.8424L35.4207 26.7004V27.8377ZM35.1718 26.3449C35.2782 26.3449 35.3849 26.2735 35.3849 26.2024C35.3849 26.1312 35.2785 26.0604 35.1718 26.0604C35.0649 26.0604 34.9582 26.1315 34.9582 26.2024C34.9582 26.2732 35.0649 26.3449 35.1718 26.3449ZM34.6029 27.9447C34.6029 28.0867 34.7093 28.0866 34.7449 28.0866L34.212 28.1578V27.9802C34.1051 28.1222 33.892 28.1933 33.714 28.1933C33.1811 28.1933 33.2164 27.8025 33.2164 27.5894V27.056C33.2164 26.736 33.1095 26.7715 33.0739 26.7715H33.6429V27.7316C33.6429 28.0516 33.8209 28.0872 33.8565 28.0872C33.9276 28.0872 34.1404 28.0516 34.212 27.8736V27.0916C34.212 26.736 34.0696 26.7715 34.0696 26.7715H34.6029V27.9447ZM31.261 27.3049H30.1585V27.376C30.1585 27.8736 30.4429 28.0514 30.6918 28.0514C30.8694 28.0514 31.0474 27.9449 31.1538 27.8377C31.0474 28.0866 30.7983 28.2647 30.4785 28.2647C29.9804 28.2647 29.6965 27.8377 29.6965 27.5177C29.6965 26.9849 30.2649 26.7002 30.5494 26.7002C30.7988 26.7004 31.2252 26.8424 31.261 27.3049ZM30.5496 26.8068C30.3012 26.8068 30.2296 27.0557 30.194 27.2333H30.9049C30.9052 26.9849 30.7277 26.8068 30.5496 26.8068ZM36.8783 27.8022C36.8783 28.0511 36.6294 28.2647 36.2383 28.2647C36.0247 28.2647 35.8827 28.2286 35.7408 28.1222V27.8733C35.8119 28.0514 35.9891 28.1933 36.2027 28.1933C36.3808 28.1933 36.5228 28.0869 36.5228 27.9449C36.5228 27.8025 36.3447 27.7313 36.1319 27.6249C35.9538 27.5535 35.6694 27.4824 35.6694 27.1624C35.6694 26.9135 35.9183 26.736 36.3094 26.736C36.4163 26.736 36.5583 26.736 36.7719 26.8424V27.0913C36.5583 26.8068 36.345 26.8068 36.2739 26.8068C36.1319 26.8068 36.025 26.9133 36.025 27.0205C36.025 27.1624 36.1319 27.2335 36.4164 27.3405C36.4872 27.3758 36.8783 27.4822 36.8783 27.8022ZM38.1937 28.2286C38.2293 28.1931 38.3006 28.1931 38.3006 27.9447V26.4513C38.3006 26.1668 38.1937 26.1668 38.1581 26.1312L38.7271 25.9888V27.9447C38.7271 28.1931 38.8335 28.1931 38.869 28.2286H38.1937ZM41.145 28.1933C41.3581 27.6958 41.9625 26.6293 42.3534 26.0604H41.0736C41.038 26.0604 40.9672 26.0604 40.8961 25.989L40.6825 26.4871C40.7536 26.416 40.8605 26.3807 40.9669 26.3807H41.8914C41.8203 26.4871 41.5358 27.0207 41.2161 27.518C41.0025 27.8736 40.8961 28.0869 40.8247 28.1933H41.145ZM39.5091 28.1933C39.758 27.6958 40.3269 26.6293 40.718 26.0604H39.4735C39.4024 26.0604 39.3315 26.0604 39.2604 25.989L39.0824 26.4871C39.1535 26.416 39.2249 26.3807 39.3313 26.3807H40.2558C40.1847 26.4871 39.9002 27.0207 39.6157 27.518C39.3668 27.8736 39.2602 28.0869 39.1888 28.1933H39.5091ZM42.6734 28.1578C42.9579 28.1578 43.2068 27.9089 43.2068 27.4824C43.2068 27.198 43.0287 26.8424 42.7087 26.8424C42.5312 26.8424 42.3531 26.9488 42.2467 27.0913L42.4248 26.0604H43.2776C43.3132 26.0604 43.4201 26.0604 43.5265 25.989L43.3129 26.3804H42.4954L42.3884 26.878C42.5445 26.7669 42.7303 26.7051 42.9218 26.7004C43.3843 26.7004 43.6682 27.0913 43.6682 27.4113C43.6682 27.9089 43.2063 28.2289 42.7082 28.2289C42.6371 28.2289 42.3882 28.2289 42.1398 28.1225L42.1037 27.838C42.3534 28.1578 42.5668 28.1578 42.6734 28.1578ZM39.3315 -0.00012207L39.0115 0.142108L36.4516 2.59532C36.238 2.45308 36.0247 2.41753 35.7763 2.45309C35.2782 2.55976 34.9229 3.12841 35.0293 3.73289C35.0649 3.87512 35.1363 4.01735 35.2074 4.12403L27.3144 12.0879C26.9235 11.6612 26.3544 11.4478 25.8215 11.5545C25.4654 11.6256 25.181 11.839 24.9681 12.0879L19.4928 7.82148C19.5992 7.57258 19.6706 7.25256 19.5992 6.93255C19.4928 6.18584 18.8528 5.68803 18.2127 5.83026C18.0349 5.86582 17.8927 5.93693 17.7505 6.04361L15.3328 4.33711L15.0484 4.30155L15.155 4.62157L17.2882 6.75476C17.2527 6.9681 17.2171 7.18145 17.2882 7.43009C17.3949 8.1768 18.0347 8.6746 18.675 8.53237C18.8883 8.46126 19.0658 8.39014 19.2081 8.24791C19.2792 8.1415 19.3147 8.1415 19.3503 8.1768C19.3503 8.1768 21.3768 9.95441 22.088 10.5589C22.7991 11.1631 23.937 12.052 24.15 12.2298C24.3637 12.4432 24.6481 12.6565 24.6481 12.6565C24.5412 12.9765 24.5056 13.3677 24.577 13.723C24.7901 14.7542 25.679 15.3939 26.568 15.2161C27.4569 15.0383 28.0253 14.0783 27.8125 13.0474C27.7769 12.8696 27.7055 12.6918 27.5989 12.514L35.3849 4.3724C35.5985 4.55019 35.883 4.65686 36.1674 4.58575C36.7008 4.47907 37.0564 3.91015 36.9139 3.34123C36.9139 3.23456 36.8783 3.16345 36.8428 3.09233L39.2251 0.319369L39.3315 -0.00012207ZM18.4261 7.92816C18.0349 7.99953 17.6438 7.67952 17.573 7.21727C17.5016 6.71946 17.7507 6.29277 18.1419 6.1861C18.533 6.11498 18.9239 6.435 18.995 6.89725C19.1017 7.39479 18.8172 7.82148 18.4261 7.92816ZM26.6744 14.1144C26.2835 14.1855 25.9279 13.901 25.8568 13.4743C25.7854 13.0477 26.0343 12.6568 26.3896 12.5854C26.7452 12.4787 27.1011 12.7632 27.2075 13.1896C27.2788 13.6166 27.0299 14.0433 26.6744 14.1144ZM36.2383 4.12403C35.9183 4.19514 35.5983 3.94624 35.5274 3.55511C35.4563 3.16397 35.6694 2.8084 35.9894 2.73755C36.3094 2.66617 36.6294 2.91533 36.7008 3.30647C36.7717 3.69734 36.5583 4.05291 36.2383 4.12403Z" fill="white" fill-opacity="0.34"/>
<path fill-rule="evenodd" clip-rule="evenodd" d="M26.6038 13.8659C26.8527 13.8304 26.9947 13.5459 26.9594 13.2615C26.8883 12.977 26.6749 12.7995 26.426 12.8348C26.1777 12.8703 26.0352 13.1548 26.0705 13.4393C26.1418 13.7237 26.3546 13.9371 26.6038 13.8659Z" fill="white" fill-opacity="0.34"/>
</svg>
