<svg width="28" height="29" viewBox="0 0 28 29" fill="none" xmlns="http://www.w3.org/2000/svg">
<g clip-path="url(#clip0_1106_788)">
<path d="M25.6926 14.8988L25.6636 14.8872C25.2642 14.7425 24.8185 14.6615 24.3555 14.6615L24.1124 14.6731H24.0429H24.0313C21.8086 14.8467 20.7667 16.7337 20.7436 18.4297C20.7436 18.4412 20.7436 18.4586 20.7436 18.4586C20.7436 18.4702 20.7436 18.4991 20.7436 18.4991C20.7436 19.651 20.4658 20.5076 19.8869 21.1212L19.7943 21.2138C19.0476 21.92 18.081 21.9489 17.8032 21.9489L17.6295 21.9373C17.6295 21.9373 17.3748 21.9258 17.0275 21.8332L16.9465 21.8042C16.9349 21.8042 16.906 21.7926 16.906 21.7926C16.5703 21.6885 16.2751 21.538 16.0204 21.3643L15.9799 21.3238L15.7946 21.1791C15.7831 21.1675 15.7541 21.1386 15.7541 21.1386C15.2621 20.6987 14.938 20.1488 14.7759 19.4542C14.6833 19.0779 14.6428 18.6901 14.6543 18.3023C14.6543 17.0694 15.0422 16.1201 15.7773 15.5355C16.5645 14.9046 17.5427 14.8409 18.1447 14.9741C18.1562 14.9741 18.8913 15.0956 19.2271 15.7613C19.2965 15.8539 19.3197 15.9639 19.3313 16.0391C19.3313 16.0796 19.3428 16.1086 19.3428 16.1317C19.3428 16.2359 19.3139 16.3343 19.2907 16.398L19.2618 16.5022V16.5311V16.56L19.2734 16.7858C19.3139 16.9884 19.4991 17.1331 19.7306 17.1331C19.8233 17.1331 19.9159 17.1215 20.0085 17.0926C20.1706 17.0231 20.2747 16.9305 20.3153 16.7858C20.4079 16.4269 20.0606 15.9175 19.8985 15.7034C19.3081 15.0088 18.4399 14.6326 17.4501 14.6326C16.3156 14.6326 15.1869 15.1419 14.4518 15.9812V10.6039L14.4633 3.55381C14.4633 2.26882 14.4633 0.798598 16.7381 0.02297H16.7092C16.7207 0.02297 16.7207 0.0229702 16.7381 0.0113937H13.6356L10.3594 -0.000183105C10.371 -0.000183105 10.371 -0.000182841 10.3884 0.0113937H10.3594C10.9325 0.213983 11.3608 0.451302 11.685 0.717562L11.6965 0.729138C11.7255 0.75808 11.766 0.781233 11.7891 0.810174C12.6342 1.59738 12.6342 2.61611 12.6342 3.53645V15.987V16.6816C12.6053 16.6527 12.4895 16.5369 12.2985 16.3459C11.2161 15.2461 7.78946 11.7847 6.25557 10.0077L5.78672 9.44627C5.75778 9.41733 3.66242 7.09044 5.35839 5.40606C6.18611 4.57834 7.51162 4.21368 8.7561 4.48572C10.0527 4.76356 11.0425 5.64917 11.5518 6.95731V6.92837C11.5518 6.93995 11.5518 6.93995 11.5634 6.93995V5.95015L11.575 4.90827C11.546 4.87933 8.71558 3.07339 5.43363 4.66516C5.40469 4.67674 2.47583 6.1759 3.63927 8.93111C3.93447 9.6778 4.38596 10.3203 4.72168 10.7081C4.72168 10.7081 4.72168 10.7081 4.81429 10.8123C4.82587 10.8239 4.82587 10.8239 4.84323 10.8412C4.84323 10.8412 4.83165 10.8528 4.81429 10.8528C4.68116 10.9223 4.14285 11.2117 3.61033 11.5879C2.30218 12.3925 0.0910645 14.0769 0.0910645 16.3632C0.0910645 19.8131 3.11254 22.2325 7.43059 22.2325L8.1136 22.2036L8.25831 22.192L8.69822 22.1515C9.61855 22.0589 10.4752 21.8447 11.2277 21.538L11.3203 21.4974C11.3319 21.4974 11.5866 21.3759 11.5866 21.3759L11.9454 21.1907L12.038 21.1386C12.6284 20.8028 13.1089 20.444 13.4967 20.0562C13.5083 20.0851 13.5372 20.1083 13.5488 20.1372C13.9655 20.6871 15.2332 22.1052 17.2417 22.221H17.2822H17.508C19.0071 22.221 19.9275 21.4859 20.4368 20.8723C20.7147 20.5134 20.9057 20.1488 21.0099 19.923C21.0504 20.0272 21.0909 20.1372 21.143 20.2414C21.4787 20.9881 22.0286 21.5669 22.7463 21.8968C23.2383 22.1226 23.7766 22.2441 24.3671 22.2441C24.5928 22.2441 24.8243 22.2152 25.0732 22.1747H25.1022C26.9718 21.8563 27.7879 20.2472 27.9095 18.8696C28.0831 17.3878 27.4406 15.5587 25.6926 14.8988ZM16.7034 0.040335H16.7323C15.9972 0.295019 15.4994 0.613373 15.1695 0.98961C15.4879 0.619161 15.9799 0.295019 16.7034 0.040335ZM11.5171 6.94574V6.97468C11.4361 6.76051 11.3435 6.54635 11.2393 6.36112C11.3435 6.54056 11.4361 6.73157 11.5171 6.94574ZM4.05024 11.7847C3.20515 12.4562 2.07065 13.6312 1.79281 15.2635C2.07065 13.6312 3.21094 12.4562 4.05024 11.7847ZM9.81535 21.6942C7.2743 22.2962 3.81292 21.3064 2.41795 18.6033C1.93752 17.6656 1.73493 16.8089 1.73493 16.0333C1.73493 12.8787 4.98215 11.1364 5.02267 11.1249C5.02267 11.1364 12.5648 18.8811 12.5648 18.8811C12.559 20.2356 11.5287 21.2948 9.81535 21.6942ZM10.3652 0.0287582C10.3537 0.0287582 10.3537 0.0287584 10.3363 0.0171819L13.4388 0.0287582H10.3652ZM13.4562 20.114C13.4677 20.1025 13.4677 20.1025 13.4851 20.0851C13.4793 20.1025 13.4677 20.114 13.4562 20.114ZM14.446 16.0102C14.5675 15.877 14.6891 15.7555 14.8048 15.6513C14.6833 15.7555 14.5617 15.877 14.446 16.0102ZM20.9172 20.1025C20.9462 20.0504 20.9693 19.9983 20.9867 19.9578C20.9867 19.9578 20.9867 19.9578 20.9867 19.9693C20.9693 20.0099 20.9404 20.0619 20.9172 20.1025ZM24.315 22.0531C22.7637 22.0531 21.9476 20.3398 21.9476 18.6438C21.9476 16.0738 23.2325 14.8988 24.4365 14.8988C25.2237 14.8988 26.8676 15.796 26.8676 18.5512C26.8676 20.253 25.9704 22.0531 24.315 22.0531Z" fill="white" fill-opacity="0.34"/>
<path d="M2.01979 24.7165L0.711647 24.7049L0.70007 24.7744C1.07631 24.786 1.16892 24.8554 1.16892 25.2317V27.7727C1.16892 28.2416 0.995272 28.2647 0.954754 28.2647C0.862142 28.2647 0.810047 28.2126 0.781106 28.1026C0.740588 27.9174 0.647976 27.8248 0.503269 27.8248C0.399081 27.8248 0.277527 27.9174 0.277527 28.0795C0.277527 28.2242 0.381716 28.3979 0.676917 28.3979C1.29047 28.3979 1.61462 27.8653 1.61462 26.835V25.1391C1.61462 25.0696 1.61462 25.0349 1.62619 24.977C1.66671 24.8323 1.75932 24.7744 2.02558 24.7628L2.01979 24.7165ZM4.81553 27.7785L3.57105 24.6239C3.57105 24.6239 3.57105 24.6239 3.55947 24.6355C3.5479 24.6471 3.53053 24.676 3.51896 24.7049C3.41477 24.8381 3.30479 24.948 3.2006 25.0117C3.2006 25.0233 3.28164 25.1738 3.28164 25.1738L2.2629 27.8595C2.15871 28.1547 2.04874 28.2589 1.86351 28.2995L1.85194 28.3689L2.76069 28.3805L2.77227 28.311C2.76069 28.2995 2.65072 28.2821 2.65072 28.2821C2.51759 28.2705 2.35551 28.23 2.35551 28.0563C2.35551 27.9753 2.40761 27.7901 2.50022 27.5354L2.71439 26.9624H3.98781C3.98781 26.9739 4.20197 27.5354 4.20197 27.5354C4.30616 27.7901 4.36404 27.9753 4.36404 28.0448C4.36404 28.2474 4.12094 28.2879 3.92413 28.2879L3.91256 28.3573V28.3689H5.24965L5.26122 28.2995C4.98918 28.2474 4.93708 28.0853 4.81553 27.7785ZM3.57105 24.6355C3.57105 24.6355 3.59999 24.7049 3.64051 24.8091L3.57105 24.6355C3.57105 24.6528 3.57105 24.6528 3.57105 24.6355ZM3.64051 26.8582C3.29321 26.8582 2.78385 26.8466 2.77227 26.8466L2.78385 26.8061C2.87646 26.5803 3.31637 25.388 3.35688 25.2838C3.36846 25.3243 3.95886 26.8234 3.97044 26.8466H3.63472V26.8582H3.64051ZM3.97044 26.8582C3.97044 26.8466 3.97044 26.8292 3.95886 26.8177L3.97044 26.8582ZM6.96876 28.34C6.14104 28.34 5.64325 27.4544 5.64325 26.6035C5.64325 25.7063 6.07158 24.7455 6.99192 24.7455C7.79648 24.7455 8.19587 25.3995 8.28849 26.0189L8.34058 26.0304L8.35216 24.8381L8.30006 24.8265C8.28849 24.8265 8.12642 25.0812 8.12642 25.0812C8.11484 25.0812 8.11484 25.0696 8.09747 25.0696C7.75018 24.7918 7.40288 24.6702 6.98613 24.6702C5.9153 24.6702 5.13967 25.4748 5.13967 26.5803C5.13967 27.7322 5.82269 28.4499 6.93403 28.4499C7.39131 28.4499 7.7907 28.3052 8.14957 28.0216C8.14957 28.0506 8.2827 28.3168 8.2827 28.3168H8.33479L8.34637 27.165L8.29428 27.1534C8.16115 27.9001 7.66335 28.34 6.96876 28.34ZM8.12063 28.0506C8.1322 28.039 8.16114 28.0216 8.17272 28.01C8.16114 28.0216 8.1322 28.0332 8.12063 28.0506ZM10.6212 24.6528C10.0076 24.6528 8.84416 25.0522 8.84416 26.5919C8.84416 27.2749 9.2204 28.4384 10.598 28.4384C12.0566 28.4384 12.4445 27.2633 12.4445 26.5803C12.4387 25.2548 11.4894 24.6528 10.6212 24.6528ZM10.5922 28.3573C9.7645 28.3573 9.32459 27.4891 9.32459 26.6209C9.32459 25.3243 9.99602 24.7512 10.6617 24.7512C11.09 24.7512 11.9582 25.1912 11.9582 26.5861C11.9582 27.4312 11.4778 28.3573 10.5922 28.3573ZM14.4298 26.4298C14.9218 26.3257 15.2055 26.0015 15.2055 25.5442C15.2055 25.2664 15.0434 24.9712 14.8061 24.8612C14.5398 24.7281 14.2736 24.6991 13.9205 24.6991H13.7989L12.7281 24.7107L12.7165 24.7802C13.0233 24.8091 13.1043 24.8323 13.1043 25.0754V28.0332C13.1043 28.2358 12.9712 28.2763 12.7165 28.2879L12.7049 28.3573C12.7165 28.3689 13.278 28.3689 13.278 28.3689L13.851 28.3805C14.8408 28.3805 15.3907 28.0216 15.3907 27.3618C15.4196 26.8582 15.0318 26.4819 14.4298 26.4298ZM13.5616 24.7686L13.6021 24.7802C13.8279 24.7802 14.0941 24.7802 14.2678 24.8496C14.563 24.9538 14.7366 25.2259 14.7366 25.5963C14.7366 26.343 14.1057 26.4241 13.8279 26.4241H13.55L13.5616 24.7686ZM14.0189 28.2995C13.741 28.2995 13.5616 28.2474 13.5616 27.9522V26.5225L13.8047 26.534C14.3951 26.534 14.9276 26.6035 14.9276 27.3907C14.9276 27.9811 14.6035 28.2995 14.0189 28.2995ZM22.2845 28.34C21.4568 28.34 20.959 27.4544 20.959 26.6035C20.959 25.7063 21.3873 24.7455 22.3077 24.7455C23.1122 24.7455 23.5116 25.3995 23.6042 26.0189L23.6563 26.0304L23.6679 24.8381L23.6158 24.8265C23.6042 24.8265 23.4422 25.0812 23.4422 25.0812C23.4306 25.0812 23.4306 25.0696 23.4132 25.0696C23.0659 24.7918 22.7186 24.6702 22.3019 24.6702C21.231 24.6702 20.4554 25.4748 20.4554 26.5803C20.4554 27.5007 20.8953 28.1605 21.6594 28.3747C21.4163 28.6815 21.15 28.8146 20.8143 28.8146C20.2239 28.8146 19.4772 28.1721 18.7826 27.437C18.9563 27.2113 19.2109 26.835 19.2109 26.835C19.3846 26.5919 19.5293 26.4761 19.8129 26.4356L19.8245 26.3835L18.9273 26.372L18.9157 26.4241C18.9273 26.4356 18.9563 26.4356 18.9563 26.4356C19.0373 26.4356 19.1415 26.4472 19.182 26.5051L19.2109 26.5861C19.1994 26.6787 18.9042 27.1071 18.7305 27.3733C18.3427 26.9566 17.9838 26.5167 17.6597 26.1404C17.7118 26.1115 17.9375 25.9784 17.9375 25.9784L18.1517 25.8568C18.418 25.6716 18.5279 25.5095 18.5279 25.2838C18.5279 24.8844 18.0996 24.6413 17.7928 24.6413C17.5902 24.6413 17.3934 24.7107 17.2198 24.8439C17.0346 24.9886 16.9246 25.2201 16.9246 25.4979C16.9246 25.7526 17.0288 26.0594 17.1908 26.3025C16.7625 26.5282 16.3631 26.864 16.3631 27.4775C16.3631 28.039 16.7799 28.4673 17.3124 28.4673C17.8218 28.4673 18.117 28.2011 18.3716 27.9058L18.4527 27.8017C18.4527 27.8132 18.4643 27.8132 18.4816 27.8306C19.3904 28.7683 20.1139 28.9535 20.5828 28.9535C21.0632 28.9535 21.3989 28.7799 21.7173 28.3515C21.8793 28.3921 22.053 28.421 22.2382 28.421C22.6955 28.421 23.1064 28.2763 23.4537 27.9927C23.4537 28.0216 23.5869 28.2879 23.5869 28.2879H23.639L23.6505 27.136L23.5984 27.1244C23.4711 27.9001 22.9791 28.34 22.2845 28.34ZM17.6539 26.1115C17.6828 26.0999 17.706 26.0825 17.7349 26.0594C17.706 26.0825 17.6828 26.0941 17.6539 26.1115ZM17.1851 25.2548C17.1851 25.0407 17.2545 24.9075 17.4282 24.8265C17.5208 24.786 17.6423 24.7744 17.787 24.7975C18.0649 24.8496 18.2675 25.0928 18.2675 25.388C18.2675 25.6426 17.8912 25.9494 17.6539 26.0941C17.3761 25.7758 17.1851 25.5442 17.1851 25.2548ZM17.6018 28.1142C17.1214 28.1142 16.7857 27.7148 16.7857 27.136C16.7857 26.8177 16.9477 26.563 17.2661 26.3604C17.6134 26.8292 18.0128 27.3097 18.4295 27.738C18.1922 27.9811 17.9491 28.1142 17.6018 28.1142ZM21.6536 28.4731C21.6825 28.4442 21.7057 28.4036 21.7346 28.3689C21.7173 28.4094 21.6941 28.4499 21.6536 28.4731ZM23.4306 28.0506C23.4422 28.039 23.4711 28.0216 23.4827 28.01C23.4711 28.0216 23.448 28.0332 23.4306 28.0506ZM25.9311 24.6528C25.3176 24.6528 24.1541 25.0522 24.1541 26.5919C24.1541 27.2749 24.5304 28.4384 25.908 28.4384C27.3666 28.4384 27.7544 27.2633 27.7544 26.5803C27.7544 25.2548 26.7994 24.6528 25.9311 24.6528ZM25.908 28.3573C25.0802 28.3573 24.6403 27.4891 24.6403 26.6209C24.6403 25.3243 25.306 24.7512 25.9774 24.7512C26.4058 24.7512 27.274 25.1912 27.274 26.5861C27.2682 27.4312 26.7878 28.3573 25.908 28.3573Z" fill="white" fill-opacity="0.34"/>
</g>
<defs>
<clipPath id="clip0_1106_788">
<rect width="27.8416" height="28.9413" fill="white" transform="translate(0.0911865)"/>
</clipPath>
</defs>
</svg>
