<svg width="134" height="29" viewBox="0 0 134 29" fill="none" xmlns="http://www.w3.org/2000/svg">
<path d="M50.3102 26.9503C49.9878 27.9568 49.9475 28.158 51.0357 28.158C52.0837 28.158 52.4868 28.1178 53.0511 27.1919C53.1317 27.1516 53.2526 27.1919 53.2526 27.2321C53.172 27.5542 52.8495 28.1983 52.6883 28.4398C52.3256 28.4398 51.9628 28.4398 51.6403 28.4398C51.2776 28.4398 50.9148 28.4398 50.5924 28.4398H49.5444C49.1816 28.4398 48.8592 28.4398 48.577 28.4801C48.4964 28.4398 48.4964 28.3191 48.577 28.2386L48.7786 28.1983C49.2219 28.1178 49.3025 28.0373 49.5847 27.1114L50.6327 23.7298C50.9148 22.8844 50.9148 22.7234 50.4311 22.6428L50.2296 22.6026C50.1893 22.5221 50.1893 22.4013 50.2699 22.361C50.6327 22.361 50.9551 22.4013 51.3179 22.4013C51.7209 22.4013 52.0031 22.4013 52.4465 22.361C52.5271 22.4013 52.5271 22.5623 52.4465 22.6026L52.1643 22.6428C51.6403 22.7234 51.6 22.8039 51.3179 23.7298C51.3179 23.7298 50.3102 26.9503 50.3102 26.9503ZM56.9608 25.2595C56.9608 25.9439 56.0741 26.3867 54.7439 26.7893C54.6633 26.9503 54.623 27.2321 54.623 27.5944C54.623 27.9165 54.8246 28.1178 55.0664 28.1178C55.3889 28.1178 55.6307 27.9165 56.0338 27.5944C56.1144 27.5944 56.1547 27.675 56.1547 27.7555C55.5904 28.4398 55.0664 28.6009 54.7036 28.6009C54.1394 28.6009 53.9781 28.0775 53.9781 27.6347C53.9781 27.0711 54.3409 25.9439 55.3486 25.179C55.8322 24.8167 56.195 24.7362 56.4368 24.7362C56.7593 24.6959 56.9608 25.018 56.9608 25.2595ZM55.5098 25.4206C55.147 25.8231 54.9455 26.2257 54.8246 26.4673C55.4292 26.266 55.7113 26.1049 56.0338 25.7829C56.3159 25.5011 56.3965 25.2595 56.3965 25.179C56.3965 25.0985 56.3562 24.9777 56.195 24.9777C56.0741 24.9777 55.8322 25.0583 55.5098 25.4206ZM61.9589 23.5285C62.1604 22.8441 62.0798 22.7636 61.6767 22.7234H61.3946C61.3139 22.6831 61.3542 22.5623 61.3946 22.5221C61.9185 22.4416 62.4022 22.4013 62.9262 22.4013C63.4099 22.4013 63.9742 22.4416 64.4176 22.6026C64.8609 22.8039 65.1834 23.1259 65.1834 23.7298C65.1834 24.6557 64.2563 25.0583 63.7727 25.0985C63.6114 25.0985 63.692 25.179 63.7727 25.179C64.3369 25.3803 64.74 25.9037 64.74 26.5075C64.74 26.8296 64.6594 27.3127 64.2563 27.675C63.8936 28.0373 63.2084 28.3593 62.0798 28.3593C61.5961 28.3593 61.2333 28.3191 60.8706 28.3191C60.5481 28.3191 60.2257 28.3191 59.9435 28.3593C59.8629 28.3191 59.8629 28.1983 59.9435 28.1178L60.1451 28.0775C60.5884 27.997 60.669 27.9165 60.9512 26.9906L61.9589 23.5285ZM61.4752 27.3529C61.2736 27.9568 61.5558 28.158 62.2007 28.158C62.9665 28.158 63.9339 27.675 63.9339 26.4673C63.9339 25.7024 63.2487 25.3401 62.6038 25.3401C62.1604 25.3401 62.1201 25.3401 62.0395 25.6621L61.4752 27.3529ZM62.2813 24.7765C62.2007 24.9777 62.241 25.0583 62.6038 25.0583C63.2487 25.0583 64.4176 24.7362 64.4176 23.609C64.4176 23.0857 64.0145 22.6831 63.289 22.6831C62.9262 22.6831 62.9262 22.6831 62.8456 22.9649C62.8456 22.9649 62.2813 24.7765 62.2813 24.7765ZM67.0375 25.5413L66.6344 26.7088H66.6747C66.9569 26.1855 67.4003 25.4608 67.6421 25.179C67.8436 24.8972 68.0855 24.696 68.287 24.696C68.6095 24.696 68.6498 25.018 68.6498 25.1388C68.6498 25.2595 68.5691 25.5413 68.4482 25.7024C68.3273 25.8231 68.2064 25.8634 68.1661 25.6621C68.1258 25.4206 68.0855 25.2998 67.9645 25.2998C67.8839 25.2998 67.763 25.3803 67.6421 25.5816C67.0778 26.3062 66.5941 27.3932 66.1104 28.4398C66.0701 28.5204 66.0298 28.5606 65.9492 28.5606C65.8686 28.5606 65.5865 28.5204 65.6671 28.3191C65.788 27.9568 66.3523 26.3465 66.5941 25.4608C66.6344 25.3803 66.5941 25.2595 66.5135 25.2595C66.2717 25.2595 66.0298 25.5011 65.8686 25.7426C65.788 25.7426 65.7074 25.7024 65.7074 25.5816C65.9895 25.0985 66.3523 24.696 66.7957 24.696C67.2793 24.696 67.1181 25.2998 67.0375 25.5413ZM71.7937 24.4947C71.9549 24.4142 72.1968 24.4947 72.2371 24.6154C72.1161 24.9375 71.31 26.9503 71.0279 27.7957C70.9876 27.9568 71.0279 27.997 71.1085 27.997C71.2697 27.997 71.5115 27.836 72.0355 27.3932C72.1161 27.3932 72.1564 27.4334 72.1564 27.5139C71.7937 28.0373 71.1085 28.5204 70.6248 28.5204C70.5039 28.5204 70.3829 28.4398 70.3426 28.2788C70.3426 28.1983 70.3426 28.1178 70.4233 27.9165L70.7054 27.1114H70.6651C70.0202 27.9165 69.0931 28.5606 68.6498 28.5606C68.4079 28.5606 68.2467 28.3191 68.2467 28.0373C68.2467 27.836 68.4482 27.1114 69.0528 26.266C69.4962 25.6621 69.8993 25.2998 70.262 25.0985C70.6248 24.8972 70.8263 24.8167 71.0682 24.8167C71.1488 24.8167 71.2294 24.857 71.2697 24.857C71.31 24.857 71.3906 24.9375 71.4712 25.0583L71.7937 24.4947ZM70.2217 25.5413C69.6574 26.0647 69.0931 27.2724 69.0931 27.9165C69.0931 28.0373 69.1334 28.0775 69.2141 28.0775C69.2947 28.0775 69.5768 27.9568 70.1008 27.4737C70.786 26.8296 71.1891 26.0647 71.31 25.5011C71.2294 25.3401 71.1085 25.179 70.8666 25.179C70.6651 25.179 70.5039 25.2595 70.2217 25.5413ZM75.0182 25.2193C75.0182 25.3803 74.9376 25.4608 74.857 25.5011C74.7764 25.5011 74.7361 25.5011 74.6958 25.4206C74.5345 25.2595 74.4136 25.1388 74.1315 25.1388C73.8493 25.1388 73.7687 25.3803 73.7687 25.5011C73.7687 25.7024 73.809 25.8634 74.0912 26.3465C74.333 26.7088 74.4539 26.9503 74.4539 27.3529C74.4539 27.5944 74.333 27.9165 73.9702 28.2386C73.7284 28.4398 73.406 28.5606 73.0432 28.5606C72.6804 28.5606 72.4789 28.2788 72.4789 28.0775C72.4789 27.997 72.5192 27.8762 72.5998 27.7957C72.6804 27.7152 72.761 27.7152 72.8417 27.7957C72.9626 27.9165 73.2447 28.158 73.4866 28.158C73.6881 28.158 73.9299 27.9165 73.9299 27.6347C73.9299 27.4737 73.809 27.1919 73.6075 26.8296C73.3656 26.4673 73.285 26.1452 73.285 25.9842C73.285 25.6219 73.4463 25.3803 73.8493 25.018C74.1315 24.7765 74.4136 24.7362 74.5345 24.7362C74.7764 24.6959 75.0182 24.9777 75.0182 25.2193ZM77.5978 25.2193C77.5978 25.3803 77.5172 25.4608 77.4366 25.5011C77.356 25.5011 77.3157 25.5011 77.2754 25.4206C77.1142 25.2595 76.9932 25.1388 76.7111 25.1388C76.429 25.1388 76.3483 25.3803 76.3483 25.5011C76.3483 25.7024 76.3887 25.8634 76.6708 26.3465C76.9126 26.7088 77.0336 26.9503 77.0336 27.3529C77.0336 27.5944 76.9126 27.9165 76.5499 28.2386C76.308 28.4398 75.9856 28.5606 75.6228 28.5606C75.2601 28.5606 75.0585 28.2788 75.0585 28.0775C75.0585 27.997 75.0988 27.8762 75.1794 27.7957C75.2601 27.7152 75.3407 27.7152 75.4213 27.7957C75.5422 27.9165 75.8244 28.158 76.0662 28.158C76.2677 28.158 76.5096 27.9165 76.5096 27.6347C76.5096 27.4737 76.3886 27.1919 76.1871 26.8296C75.9453 26.4673 75.8647 26.1452 75.8647 25.9842C75.8647 25.6219 76.0259 25.3803 76.429 25.018C76.7111 24.7765 76.9932 24.7362 77.1142 24.7362C77.3963 24.6959 77.5978 24.9777 77.5978 25.2193ZM78.9683 27.6347C78.8877 27.836 78.928 27.9568 79.0489 27.9568C79.1698 27.9568 79.5326 27.675 80.0162 27.1919C80.8627 26.3867 81.3061 25.2998 81.6285 24.7765C81.8301 24.7362 82.0316 24.8167 82.0719 24.9375C81.9913 25.179 81.3867 26.6685 81.0239 27.7555C80.9836 27.8762 80.9836 27.997 81.0642 27.997C81.2255 27.997 81.7091 27.5542 81.951 27.2724C82.0316 27.2724 82.1122 27.2724 82.1122 27.3932C81.8704 27.836 80.9836 28.5606 80.4999 28.5606C80.3387 28.5606 80.2178 28.3996 80.2581 28.2386L80.8627 26.588C80.2178 27.4334 79.0892 28.6009 78.5652 28.6009C78.2025 28.6009 78.1621 28.2386 78.2831 27.836L79.1295 25.6219C79.2101 25.4608 79.2101 25.3401 79.1295 25.3401C78.9683 25.3401 78.4846 25.7426 78.2831 25.9842C78.2025 25.9842 78.1621 25.9439 78.1218 25.9037V25.8634C78.3637 25.5011 79.2504 24.7765 79.6938 24.7765C79.8147 24.7765 80.0163 24.8972 79.9759 25.0583L78.9683 27.6347ZM84.9337 25.2193C84.9337 25.3803 84.8531 25.4608 84.7724 25.5011C84.6918 25.5011 84.6515 25.5011 84.6112 25.4206C84.45 25.2595 84.3291 25.1388 84.0469 25.1388C83.7648 25.1388 83.6842 25.3803 83.6842 25.5011C83.6842 25.7024 83.7245 25.8634 84.0066 26.3465C84.2485 26.7088 84.3694 26.9503 84.3694 27.3529C84.3694 27.5944 84.2485 27.9165 83.8857 28.2386C83.6439 28.4398 83.3214 28.5606 82.9586 28.5606C82.5959 28.5606 82.3943 28.2788 82.3943 28.0775C82.3943 27.997 82.4347 27.8762 82.5153 27.7957C82.5959 27.7152 82.6765 27.7152 82.7571 27.7957C82.878 27.9165 83.1602 28.158 83.402 28.158C83.6035 28.158 83.8454 27.9165 83.8454 27.6347C83.8454 27.4737 83.7245 27.1919 83.5229 26.8296C83.2811 26.4673 83.2005 26.1452 83.2005 25.9842C83.2005 25.6219 83.3617 25.3803 83.7648 25.018C84.0469 24.7765 84.3291 24.7362 84.45 24.7362C84.7321 24.6959 84.9337 24.9777 84.9337 25.2193ZM17.6215 3.80261C18.2664 3.80261 18.871 4.48698 18.871 5.53366V13.9071C18.871 16.9666 17.6215 16.7251 16.2914 16.7251C14.9612 16.7251 14.8 15.3966 14.8 13.8668V5.57391C14.8 4.48698 15.3643 3.84287 16.0495 3.84287V3.35978H11.4949V3.80261C12.1398 3.80261 12.7444 4.48698 12.7444 5.53366V14.5915C12.7444 16.3225 13.6714 17.651 15.8883 17.651C18.1052 17.651 19.4756 17.5302 19.4756 13.8668V5.57391C19.4756 4.48698 20.0399 3.84287 20.7251 3.84287V3.35978H17.6215V3.80261ZM113.551 3.80261C114.196 3.80261 114.761 4.48698 114.761 5.53366V13.9071C114.761 16.9666 113.511 16.7251 112.181 16.7251C110.851 16.7251 110.69 15.3966 110.69 13.8668V5.57391C110.69 4.48698 111.254 3.84287 111.899 3.84287V3.35978H107.425V3.80261C108.07 3.80261 108.634 4.48698 108.634 5.53366V14.5915C108.634 16.3225 109.561 17.651 111.778 17.651C113.995 17.651 115.365 17.5302 115.365 13.8668V5.57391C115.365 4.48698 115.889 3.84287 116.574 3.84287V3.35978H113.592L113.551 3.80261ZM26.7711 16.6446C26.6099 16.6848 25.8037 16.7653 25.1588 16.7251C24.6348 16.6848 24.6348 16.6043 24.6348 15.4369V5.41289C24.6348 4.24544 24.917 3.96364 25.844 3.96364C27.0129 3.96364 27.4966 4.28569 27.8997 5.33237C28.6655 7.30496 28.5446 11.0086 28.3431 13.8266C28.3431 13.8266 28.0206 16.2823 26.7711 16.6446ZM26.4486 3.35978H21.37V3.80261C22.0552 3.80261 22.5792 4.48698 22.5792 5.53366V15.1953C22.5792 16.2823 22.0149 16.9264 21.37 16.9264V17.3692H27.0532C27.9803 17.3692 29.0283 16.8459 29.6732 14.9538C30.3181 13.0214 30.3987 11.4112 30.2778 8.99575C30.1569 6.58034 29.7538 5.09083 29.1895 4.36621C28.6655 3.68184 27.7788 3.35978 26.4486 3.35978ZM34.8727 16.7251C34.2278 16.6446 34.1472 16.3628 34.1472 15.3161V10.6865C35.5983 10.8073 35.7595 10.8073 36.1223 12.7396H36.5253V7.90882H36.1223C35.7998 9.72038 35.5983 9.84115 34.1472 9.96192V5.25186C34.1472 4.20518 34.2278 4.00389 34.7115 4.04415L35.5177 4.08441C37.533 4.16492 37.6136 5.37263 37.7345 6.057H38.2182V3.35978H30.8824V3.80261C31.5273 3.80261 32.1319 4.48698 32.1319 5.53366V15.1953C32.1319 16.2823 31.5676 16.9264 30.8824 16.9264V17.3692H38.3794L38.9437 14.833H38.3391C37.6942 17.0874 35.8804 16.7653 34.8727 16.7251ZM121.129 16.7251C120.484 16.6446 120.404 16.3628 120.404 15.3161V10.6865C121.855 10.8073 122.016 10.8073 122.379 12.7396H122.782V7.90882H122.379C122.056 9.72038 121.855 9.84115 120.404 9.96192V5.25186C120.404 4.20518 120.484 4.00389 120.968 4.04415L121.814 4.08441C123.83 4.16492 123.91 5.37263 124.031 6.057H124.515V3.35978H117.139V3.80261C117.784 3.80261 118.348 4.48698 118.348 5.53366V15.1953C118.348 16.2823 117.784 16.9264 117.139 16.9264V17.3692H124.595L125.16 14.833H124.595C123.991 17.0874 122.137 16.7653 121.129 16.7251ZM7.94787 11.3709H4.44119L7.94787 2.71567V11.3709ZM10.205 0.340515H6.33561V0.783341C7.34327 0.783341 7.46419 1.54822 7.10143 2.35336C5.85192 5.61417 2.58708 13.9071 2.22432 14.7525C1.74064 15.7992 1.09573 16.9666 0.04776 16.9666V17.4094H3.71567V16.9666C2.86923 16.9666 2.62739 15.7589 3.03046 14.7525C3.43352 13.7461 4.15904 12.015 4.15904 12.015H7.94787V15.0343C7.94787 16.8861 7.30297 16.9666 6.37591 16.9666V17.4094H11.8173V16.9666C11.0515 16.9666 10.2454 16.9264 10.2454 15.0343C10.2454 14.0279 10.205 0.340515 10.205 0.340515ZM90.0929 8.47241C90.0929 8.91524 89.9317 9.15678 89.6092 9.15678H87.7954V5.45314V4.60775V0.944369H89.6092C89.9317 0.944369 90.0929 1.22617 90.0929 1.74951V8.47241ZM90.5363 0.340515H83.8857V0.783341C84.8531 0.783341 85.4577 1.42745 85.4577 2.67542V14.833C85.4577 16.7653 84.7321 16.9264 83.8857 16.9264V17.3692H89.3271V16.9264C88.3597 16.9264 87.7551 16.7251 87.7551 14.833V9.84115H90.6572C91.5843 9.84115 92.3098 9.15678 92.3098 7.62702V2.47413C92.3501 1.22617 91.7455 0.340515 90.5363 0.340515ZM45.7959 13.1825L43.0953 3.40004H39.508V3.84287C40.3948 3.84287 40.7575 4.16492 40.7575 5.61417V15.2356C40.7575 16.3225 40.2335 16.9666 39.508 16.9666V17.4094H42.6519V16.9666C41.9264 16.9666 41.4024 16.2823 41.4024 15.2356V5.17135L44.8285 17.4094H45.151L48.6979 5.2116V15.2356C48.6979 16.3225 48.174 16.9666 47.4484 16.9666V17.4094H52.0434V16.9666C51.3179 16.9666 50.7536 16.2823 50.7536 15.2356V5.57391C50.7536 4.48698 51.2776 3.84287 52.0434 3.84287V3.35978H48.577L45.7556 12.9409M67.6018 8.75421C67.6018 10.445 65.8283 10.2035 65.1834 10.2035V4.9298C65.1834 4.36621 65.2237 4.08441 65.7074 4.08441C66.6747 4.08441 67.6018 3.92338 67.6018 5.25186C67.6018 5.2116 67.6018 8.75421 67.6018 8.75421ZM70.1814 16.2017L67.8436 10.6865C68.5691 10.5255 69.5365 10.2437 69.5365 8.91524C69.5365 7.50625 69.4962 6.057 69.4962 5.09083C69.4962 3.35978 67.8839 3.35978 66.2717 3.35978H61.9589V3.80261C62.6038 3.80261 63.1681 4.48698 63.1681 5.53366V15.1953C63.1681 16.2823 62.4425 16.9264 61.9185 16.9264V17.3692H66.4329V16.9264C65.788 16.9264 65.1834 16.242 65.1834 15.1953V10.8476H65.8686L68.1661 16.6043C68.1661 16.6043 68.287 16.9264 68.5288 17.1679C68.7304 17.3692 69.2141 17.3692 69.2141 17.3692H70.9069V16.9264C70.7457 16.9666 70.5442 17.0471 70.1814 16.2017ZM93.6802 3.80261C94.5267 3.80261 94.8894 4.48698 94.8894 5.53366V15.1953C94.8894 16.2823 94.4864 16.9264 93.6802 16.9264V17.3692H98.114V16.9264C97.2675 16.9264 96.9048 16.242 96.9048 15.1953V5.57391C96.9048 4.48698 97.2675 3.84287 98.114 3.84287V3.35978H93.6802V3.80261ZM75.5422 8.75421C74.0106 7.94907 73.406 6.90239 73.406 6.01674C73.406 5.53366 73.6075 3.68184 74.857 3.68184C76.7514 3.7221 77.3157 6.37905 77.5172 7.5465H77.88V3.1585H77.4769C77.4769 3.64158 77.2754 3.76235 77.0739 3.76235C76.3887 3.7221 76.1468 2.91696 74.333 2.99747C73.1641 3.03773 71.6728 4.08441 71.6728 6.86214C71.6728 8.15036 72.1564 9.92166 73.7284 11.0086C76.0259 12.5384 76.7514 13.1825 76.7514 14.3499C76.7514 14.833 76.5902 16.9264 74.7764 16.9264C73.4866 16.9264 72.6401 14.7927 72.4789 13.9876L72.1968 12.5384H71.7937V17.4497H72.2371C72.2774 17.0471 72.3983 16.8459 72.5595 16.8459C73.2447 16.8459 73.9299 17.5705 75.0988 17.5302C78.1218 17.49 78.6861 14.9135 78.6861 13.5045C78.6458 11.5319 77.6785 9.84115 75.5422 8.75421ZM103.958 10.284V10.6463C103.958 10.6463 104.563 10.6865 104.563 11.693V14.9538C104.563 16.6848 103.958 16.8459 102.87 16.8459C101.782 16.8459 101.379 16.4433 101.379 15.1148V5.45314C101.379 4.52723 101.862 3.76235 102.991 3.76235C104.241 3.76235 105.571 5.01032 105.571 7.42573H106.256V3.1585H105.732C105.732 4.80903 104.765 3.11824 103.031 3.11824C101.782 3.11824 100.734 3.4403 100.17 4.08441C99.565 4.76878 99.2829 5.57391 99.2829 6.54008V14.1084C99.2829 15.0745 99.565 15.8797 100.17 16.5238C100.774 17.2082 102.064 17.5705 102.91 17.5705C103.394 17.5705 104.12 17.3692 104.482 17.2082C104.845 17.0471 105.168 16.7653 105.45 16.4433C106.054 15.7589 106.377 14.9538 106.377 14.0279V11.693C106.377 10.7671 106.981 10.6865 106.981 10.6865V10.3242C107.022 10.284 103.958 10.284 103.958 10.284ZM60.6287 16.0005L57.767 3.35978H55.2679V3.80261C56.1547 3.80261 56.0338 4.52723 55.8725 5.37263L53.8169 15.5979C53.5347 16.7653 53.172 16.9666 52.8092 16.9666V17.4094H55.1873V16.9666C54.3006 16.9666 54.3006 16.242 54.5424 15.1551L54.9455 13.102H57.9282L58.4925 15.6381C58.7746 16.7653 58.3312 16.9666 57.8073 16.9666V17.4094H61.4349V16.9666C61.2333 16.9264 60.8706 16.8459 60.6287 16.0005ZM55.1067 12.4578L56.3562 6.17777L57.767 12.4578H55.1067ZM125.482 3.35978V6.057H125.966C126.046 5.53366 126.167 4.72852 126.651 4.40646C127.135 4.08441 127.618 4.12467 128.465 4.12467V15.1953C128.465 16.2823 127.941 16.9264 127.256 16.9264V17.3692H131.689V16.9264C131.045 16.9264 130.48 16.242 130.48 15.1953V4.12467C131.286 4.12467 131.77 4.12467 132.294 4.40646C132.778 4.72852 132.899 5.4934 132.979 6.057H133.463V3.35978H125.482Z" fill="white" fill-opacity="0.34"/>
</svg>
