<svg width="55" height="29" viewBox="0 0 55 29" fill="none" xmlns="http://www.w3.org/2000/svg">
<g clip-path="url(#clip0_1106_775)">
<path d="M34.8903 0.502411H33.3147C33.3147 3.36245 32.5935 4.65948 31.0927 5.55851V0.501648H28.6685V6.61018C28.2159 6.76892 27.7297 6.93339 27.2085 7.11197C26.9162 7.21157 26.6331 7.31078 26.3579 7.40885V0.501648H23.9325V8.41778C21.48 9.66216 20.1521 11.3839 20.1521 15.2693H21.7273C21.7273 12.6164 22.3772 11.3026 23.9325 10.3246V15.2712H26.3579V9.20768C26.7693 9.05428 27.2096 8.90012 27.6843 8.73718C28.0194 8.62232 28.3475 8.51051 28.6685 8.39985V15.2712H31.0927V7.44319C33.4033 6.32704 34.8903 4.6549 34.8903 0.502411ZM25.709 26.6651H22.8409L22.8397 24.545H25.718C26.5705 24.545 26.9403 24.8782 26.9403 25.6352C26.9403 26.2019 26.7087 26.6651 25.709 26.6651ZM25.4536 21.3133C26.3736 21.3133 26.6567 21.6472 26.6567 22.2028C26.6567 22.7576 26.4114 23.1541 25.4883 23.1541L22.8397 23.155V21.3135H25.4536V21.3133ZM27.639 23.7807C28.1495 23.3819 28.4414 22.8008 28.4414 22.0979C28.4414 21.3969 28.1572 19.7675 25.5349 19.7675H21.1988V28.2049H25.81C27.6668 28.2049 28.7326 27.2673 28.7326 25.6379C28.7326 24.843 28.3537 24.2073 27.639 23.7807ZM47.003 19.7673V21.4834H49.6558V28.2047H51.31V21.4834H53.8965V19.7673H47.003ZM41.8081 26.7692C40.2027 26.7692 38.9439 25.5355 38.9439 23.9603C38.9439 22.3851 40.2027 21.1521 41.8081 21.1521C43.4154 21.1521 44.6727 22.3851 44.6727 23.9603C44.6727 25.5355 43.4154 26.7692 41.8081 26.7692ZM41.8081 19.5269C39.2736 19.5269 37.2866 21.4742 37.2866 23.9607C37.2866 26.4475 39.2736 28.394 41.8081 28.394C44.3442 28.394 46.3307 26.4475 46.3307 23.9607C46.3307 21.4742 44.3442 19.5269 41.8081 19.5269ZM31.0799 19.7673V28.2028H36.774V26.496H32.7314V19.7673H31.0799ZM17.3401 19.7676V24.1712C17.3401 25.4515 17.2077 26.8084 15.1101 26.8084C13.0117 26.8084 12.8625 25.4801 12.8625 24.1712V19.7676H11.2186V24.2758C11.2186 26.2891 11.7811 28.4393 15.1101 28.4393C18.4383 28.4393 18.9977 26.2581 18.9977 24.2758V19.7676H17.3401ZM7.16657 19.7673V22.909H2.91601V19.7654H1.26334V28.2059H2.91601V24.6357H7.16657V28.2059H8.8078V19.7673H7.16657Z" fill="white" fill-opacity="0.34"/>
</g>
<defs>
<clipPath id="clip0_1106_775">
<rect width="53.6368" height="28.9413" fill="white" transform="translate(0.761414)"/>
</clipPath>
</defs>
</svg>
