<svg width="54" height="29" viewBox="0 0 54 29" fill="none" xmlns="http://www.w3.org/2000/svg">
<g clip-path="url(#clip0_1106_766)">
<path d="M7.55693 20.0958H4.97411L4.45073 21.4641H3.70287L5.96663 15.7322H6.66026L8.88618 21.4641H8.07904L7.55693 20.0958ZM5.2112 19.474H7.3211L6.27056 16.7184L5.2112 19.474ZM1.30922 16.3426V18.4159H2.31814C2.31814 18.4159 2.501 18.4096 2.59307 18.4096C2.89953 18.4096 3.10257 18.3428 3.29552 18.1649C3.491 17.9833 3.57676 17.687 3.57676 17.3767C3.5881 17.0848 3.48647 16.7998 3.293 16.5809C3.09374 16.3628 2.7217 16.3426 2.65739 16.3426H2.55649H1.30922ZM0.581543 15.7335H2.55649C2.85412 15.7335 3.38381 15.8028 3.74197 16.0941C4.23382 16.4952 4.3221 17.0148 4.3221 17.3654C4.3221 17.716 4.23634 18.1851 3.89331 18.5206C3.4456 18.9595 2.97646 19.0263 2.31814 19.0263H1.30922V21.4641H0.581543V15.7335ZM28.0417 15.7322H28.7681V18.1914H31.3434V15.7322H32.0698V21.4641H31.3434V18.8245H28.7681V21.4641H28.0417V15.7322ZM33.3536 15.7322H34.0801V21.4616H33.3536V15.7322ZM35.3298 15.7322H36.0563V20.8297H38.5395V21.4641H35.3298V15.7322ZM12.2572 15.7322V16.3666H10.5131V21.4641H9.78537V16.3666H8.0349V15.7322H12.2572ZM16.1226 15.7322L15.7607 16.3666H13.594V18.1599H15.6194V18.7955H13.594V20.8297H15.7127L16.076 21.4641H12.8676V15.7322H16.1226ZM17.6297 18.4197L20.0952 15.7297L21.0032 15.7309L19.1141 17.774L21.0436 21.4628H20.215L18.6134 18.3062L17.6297 19.3656V21.4628H16.9033V15.7309H17.6297V18.4197ZM24.1965 16.3426V18.4159H25.2054C25.2054 18.4159 25.3882 18.4096 25.4803 18.4096C25.7893 18.4096 25.9923 18.3428 26.1828 18.1649C26.3782 17.9833 26.464 17.687 26.464 17.3767C26.4757 17.0846 26.3735 16.7993 26.179 16.5809C25.9822 16.3628 25.6089 16.3426 25.5421 16.3426H25.4437H24.1965ZM23.4688 15.7335H25.4437C25.7414 15.7335 26.2736 15.8028 26.6317 16.0941C27.1223 16.4952 27.2106 17.0148 27.2106 17.3654C27.2106 17.716 27.1248 18.1851 26.7818 18.5206C26.3328 18.9595 25.8637 19.0263 25.2054 19.0263H24.1965V21.4641H23.4688V15.7335ZM39.1524 15.7322H39.8763V21.4616H39.1524V15.7322ZM41.8361 16.3426V18.4159H42.845C42.845 18.4159 43.0253 18.4096 43.1199 18.4096C43.4264 18.4096 43.6307 18.3428 43.8211 18.1649C44.0179 17.9833 44.1024 17.687 44.1024 17.3767C44.1145 17.0847 44.0128 16.7994 43.8186 16.5809C43.6193 16.3628 43.246 16.3426 43.1817 16.3426H43.0834H41.8361ZM41.1097 15.7335H43.0834C43.3835 15.7335 43.9107 15.8028 44.2688 16.0941C44.7619 16.4952 44.849 17.0148 44.849 17.3654C44.849 17.716 44.7645 18.1851 44.4202 18.5206C43.9737 18.9595 43.5021 19.0263 42.845 19.0263H41.8361V21.4641H41.1097V15.7335ZM46.3762 16.3426V18.4159H47.3851C47.3851 18.4159 47.5655 18.4096 47.6601 18.4096C47.9665 18.4096 48.1708 18.3428 48.3612 18.1649C48.558 17.9833 48.6437 17.687 48.6437 17.3767C48.6554 17.0846 48.5532 16.7993 48.3587 16.5809C48.1595 16.3628 47.7887 16.3426 47.7218 16.3426H47.6235H46.3762ZM45.6498 15.7335H47.6235C47.9211 15.7335 48.4508 15.8028 48.809 16.0941C49.3021 16.4952 49.3891 17.0148 49.3891 17.3654C49.3891 17.716 49.3046 18.1851 48.9603 18.5206C48.5138 18.9595 48.0434 19.0263 47.3864 19.0263H46.3762V21.4641H45.6498V15.7335ZM53.4714 15.7322L53.1095 16.3666H50.9415V18.1599H52.9682V18.7955H50.9415V20.8297H53.0641L53.4247 21.4641H50.2151V15.7322H53.4714ZM28.6079 28.3272H30.1491L30.4126 28.7888H28.0783V24.6233H30.9221L32.1328 28.07L33.3927 24.6233H33.935L32.3548 28.7901H31.8491L30.5047 25.0823H28.6079V26.3889H30.081V26.8517H28.6079V28.3272ZM23.721 24.6233L23.4587 25.0823H21.881V26.3901H23.354V26.8492H21.8797V28.3272H23.4234L23.6844 28.7888H21.3513V24.6233H23.721ZM26.7087 24.6447H27.2131V28.8103H26.6746L24.7854 25.4052V28.8103H24.281V24.6447H24.9683L26.7087 27.7875V24.6447ZM36.7638 24.6233L36.5002 25.0823H34.9238V26.3901H36.398V26.8492H34.9225V28.3272H36.4661L36.7272 28.7888H34.3953V24.6233H36.7638ZM20.5757 26.6587V28.1696C20.2327 28.495 19.7976 28.8632 18.9362 28.8632C17.9689 28.8632 17.095 28.0447 17.095 26.7483C17.095 25.5174 17.9172 24.5489 19.0472 24.5489C19.9641 24.5489 20.4168 25.1139 20.5883 25.3673L20.21 25.723C20.21 25.723 19.8253 24.994 19.0472 24.994C18.2817 24.994 17.6751 25.6801 17.6751 26.7735C17.6751 27.8089 18.3271 28.418 19.022 28.418C19.6261 28.418 20.0309 28.0107 20.0587 27.9804V27.1128H18.7925V26.6587H20.5757Z" fill="white" fill-opacity="0.34"/>
<path d="M26.7621 6.56921H24.202C23.7896 6.56921 23.3709 6.82144 23.3709 7.15943C23.3709 7.28176 23.4705 7.51255 23.8123 7.51255C24.2537 7.51255 24.6333 7.05728 25.028 7.05728C25.3761 7.05728 25.4253 7.37635 25.4253 7.37635C25.2172 7.3713 25.1415 7.38139 24.8843 7.50877C24.6409 7.62731 24.3168 7.92116 24.1024 8.15195C23.888 8.384 23.5412 8.68163 23.125 8.68163C22.7063 8.68163 22.2977 8.41427 22.2977 7.92999C22.2977 7.28807 22.8097 7.0825 22.8097 6.84919C22.8097 6.77982 22.7769 6.69028 22.642 6.69028C22.4351 6.69028 22.029 6.99296 21.6368 6.99296C21.0996 6.99296 20.6317 6.38761 20.6317 6.38761C20.6317 6.38761 21.0983 5.78352 21.6368 5.78352C22.029 5.78352 22.4351 6.08619 22.642 6.08619C22.7769 6.08619 22.8097 5.99539 22.8097 5.92477C22.8097 5.69524 22.2977 5.48841 22.2977 4.84649C22.2977 4.36221 22.7063 4.09485 23.125 4.09485C23.5412 4.09485 23.888 4.39248 24.1024 4.62453C24.3168 4.85532 24.6409 5.14916 24.8843 5.26771C25.1415 5.39509 25.2172 5.40392 25.4253 5.40013C25.4253 5.40013 25.3749 5.7192 25.028 5.7192C24.6333 5.7192 24.255 5.26267 23.8123 5.26267C23.4693 5.26267 23.3709 5.49472 23.3709 5.61579C23.3709 5.9563 23.7896 6.20853 24.2033 6.20853H26.7634V3.6484C26.7634 3.23475 26.5099 2.81857 26.1706 2.81857C26.0483 2.81857 25.8175 2.91568 25.8175 3.25997C25.8175 3.70011 26.2741 4.08098 26.2741 4.47571C26.2741 4.82127 25.9537 4.87045 25.9537 4.87045C25.9588 4.66236 25.9499 4.58922 25.8213 4.33068C25.704 4.08854 25.4102 3.76317 25.1781 3.54877C24.9473 3.33438 24.6484 2.9863 24.6484 2.57013C24.6484 2.15269 24.9171 1.74281 25.4013 1.74281C26.042 1.74281 26.2501 2.25736 26.4821 2.25736C26.5502 2.25736 26.6398 2.22331 26.6398 2.08837C26.6398 1.88028 26.3371 1.47545 26.3371 1.08198C26.3371 0.544728 26.9425 0.0768433 26.9425 0.0768433C26.9425 0.0768433 27.5478 0.543467 27.5478 1.08198C27.5478 1.47545 27.2451 1.88028 27.2451 2.08837C27.2451 2.22331 27.3347 2.25736 27.404 2.25736C27.6348 2.25736 27.8429 1.74281 28.4836 1.74281C28.9679 1.74281 29.2365 2.15269 29.2365 2.57013C29.2365 2.9863 28.9389 3.33312 28.7068 3.54751C28.4748 3.76443 28.1822 4.08854 28.0611 4.32942C27.935 4.58922 27.9262 4.66236 27.9312 4.87045C27.9312 4.87045 27.6109 4.82001 27.6109 4.47571C27.6109 4.08098 28.0674 3.70011 28.0674 3.25997C28.0674 2.91568 27.8366 2.81857 27.7143 2.81857C27.375 2.81857 27.1215 3.23475 27.1215 3.6484V6.20853H29.6817C30.0941 6.20853 30.5115 5.9563 30.5115 5.61579C30.5115 5.49346 30.4157 5.26267 30.0701 5.26267C29.6312 5.26267 29.2491 5.7192 28.8544 5.7192C28.5075 5.7192 28.4596 5.40013 28.4596 5.40013C28.6677 5.40392 28.7434 5.39509 29.0007 5.26645C29.2428 5.14916 29.5669 4.85532 29.7813 4.62327C29.997 4.39248 30.345 4.09359 30.7599 4.09359C31.1786 4.09359 31.5873 4.36221 31.5873 4.84649C31.5873 5.48841 31.0727 5.69524 31.0727 5.92477C31.0727 5.99539 31.1055 6.08619 31.243 6.08619C31.4511 6.08619 31.8559 5.78352 32.2481 5.78352C32.7866 5.78352 33.2532 6.38887 33.2532 6.38887C33.2532 6.38887 32.7866 6.99296 32.2481 6.99296C31.8559 6.99296 31.4511 6.69028 31.243 6.69028C31.1055 6.69028 31.0727 6.77982 31.0727 6.84919C31.0727 7.0825 31.5873 7.28807 31.5873 7.92999C31.5873 8.41427 31.1786 8.68163 30.7599 8.68163C30.3438 8.68163 29.997 8.384 29.7813 8.15195C29.5669 7.92116 29.2428 7.62731 28.9994 7.50877C28.7434 7.38013 28.6677 7.37256 28.4596 7.37635C28.4596 7.37635 28.5075 7.05728 28.8544 7.05728C29.2491 7.05728 29.6312 7.51381 30.0701 7.51381C30.4157 7.51381 30.5115 7.28176 30.5115 7.16069C30.5115 6.82018 30.0941 6.56795 29.6817 6.56795H27.1215V9.12807C27.1215 9.54173 27.375 9.95791 27.7143 9.95791C27.8366 9.95791 28.0674 9.8608 28.0674 9.51777C28.0674 9.07637 27.6109 8.69424 27.6109 8.30076C27.6109 7.95521 27.9312 7.90603 27.9312 7.90603C27.9262 8.11411 27.935 8.18852 28.0611 8.4458C28.1822 8.68793 28.4748 9.01331 28.7068 9.2277C28.9389 9.4421 29.2365 9.79017 29.2365 10.2076C29.2365 10.6238 28.9679 11.0337 28.4836 11.0337C27.8429 11.0337 27.6348 10.5216 27.404 10.5216C27.3347 10.5216 27.2451 10.5532 27.2451 10.6881C27.2451 10.8962 27.5478 11.301 27.5478 11.6932C27.5478 12.2318 26.9425 12.6984 26.9425 12.6984C26.9425 12.6984 26.3371 12.2318 26.3371 11.6932C26.3371 11.3023 26.6398 10.8962 26.6398 10.6881C26.6398 10.5532 26.5502 10.5216 26.4821 10.5216C26.2501 10.5216 26.042 11.0337 25.4013 11.0337C24.9171 11.0337 24.6484 10.6238 24.6484 10.2076C24.6484 9.79017 24.9473 9.44336 25.1781 9.22897C25.4102 9.01457 25.704 8.68793 25.8213 8.44706C25.9499 8.18852 25.9588 8.11411 25.9537 7.90476C25.9537 7.90476 26.2741 7.95521 26.2741 8.30076C26.2741 8.69424 25.8175 9.07637 25.8175 9.51777C25.8175 9.8608 26.0483 9.95791 26.1706 9.95791C26.5099 9.95791 26.7634 9.54173 26.7634 9.12807L26.7621 6.56921Z" fill="white" fill-opacity="0.34"/>
</g>
<defs>
<clipPath id="clip0_1106_766">
<rect width="52.8899" height="28.9413" fill="white" transform="translate(0.581665)"/>
</clipPath>
</defs>
</svg>
