<svg width="101" height="29" viewBox="0 0 101 29" fill="none" xmlns="http://www.w3.org/2000/svg">
<path fill-rule="evenodd" clip-rule="evenodd" d="M4.78284 22.7228L4.69238 22.5817L5.31537 22.1903L1.52795 16.1425L0.915199 16.5242L0.824738 16.3831L5.93836 13.1988L6.96301 14.826L6.83273 14.9068C6.42082 14.4146 5.99866 14.1432 5.55717 14.1028C5.12534 14.063 4.59282 14.2434 3.94935 14.6456C3.78891 14.7355 3.67796 14.8163 3.59774 14.8664C3.51976 14.9186 3.44275 14.9723 3.36675 15.0274L5.13501 17.8499C5.23515 17.7998 5.33585 17.7492 5.41607 17.6991C5.50653 17.6593 5.58675 17.6086 5.66697 17.5586C6.10904 17.2872 6.37018 16.9959 6.4504 16.7148C6.53062 16.4235 6.4504 16.0719 6.1995 15.6401L6.32979 15.5696L7.87673 18.0308L7.75611 18.1008C7.46482 17.669 7.15361 17.4277 6.83216 17.3777C6.52095 17.3276 6.10904 17.4584 5.61634 17.7697C5.5162 17.8294 5.43598 17.8795 5.38535 17.9102C5.33528 17.95 5.28521 17.9802 5.23458 18.0109L7.13313 21.0445L7.7362 20.6729L7.82666 20.8237L4.78284 22.7228ZM9.93629 11.1193L11.5134 14.0932C11.5435 14.0829 11.5737 14.0733 11.6141 14.0533L11.795 13.9629C12.2871 13.7017 12.5682 13.4304 12.6387 13.159C12.7087 12.8978 12.6086 12.5064 12.3372 11.9836C11.9759 11.3207 11.6545 10.9185 11.3529 10.7882C11.052 10.6574 10.6702 10.7177 10.1878 10.9686C10.1349 10.9942 10.0845 11.0245 10.037 11.059C10.0022 11.0771 9.96859 11.0972 9.93629 11.1193ZM10.8301 18.9252L14.015 17.228L13.9342 17.0767L13.2913 17.4186L11.6038 14.2639L11.7546 14.174C11.8047 14.1438 11.8849 14.1034 11.9856 14.0533C12.4078 13.8224 12.719 13.7319 12.93 13.7717C13.1411 13.8218 13.3323 14.0027 13.5024 14.3242L14.0048 15.2686C14.2961 15.821 14.6477 16.1726 15.0493 16.3331C15.4408 16.4839 15.8828 16.4435 16.355 16.1926C16.6463 16.0321 16.8574 15.8609 16.9979 15.6504C17.1385 15.4393 17.209 15.1884 17.2187 14.917L17.048 14.8965C17.0281 15.0979 16.9979 15.2384 16.9473 15.3488C16.9075 15.4495 16.8569 15.5201 16.7965 15.5502C16.7163 15.6003 16.6361 15.6003 16.5752 15.5605C16.5155 15.5206 16.4347 15.4 16.3243 15.1986L15.8123 14.224C15.6114 13.8423 15.4408 13.5715 15.3002 13.4304C15.1803 13.2856 15.0245 13.1748 14.8485 13.1089C14.6579 13.0384 14.4263 13.0184 14.1754 13.0492C13.9143 13.089 13.5126 13.1999 12.9699 13.3803C13.5428 13.0088 13.9245 12.5969 14.1055 12.1451C14.2864 11.6831 14.2562 11.2308 14.0252 10.7893C13.7237 10.2267 13.2919 9.93537 12.7394 9.91489C12.1768 9.89498 11.3831 10.1658 10.3385 10.7188L7.31519 12.3261L7.39541 12.4768L8.03831 12.1349L11.3933 18.4336L10.7504 18.7755L10.8301 18.9252ZM17.9629 12.2748L19.5599 11.6018L17.7421 9.6327L17.9629 12.2748ZM17.6209 15.2384L17.551 15.0678L17.6209 15.0478C17.7266 15.0086 17.8155 14.9341 17.8724 14.8368C17.9225 14.7469 17.9424 14.6359 17.9225 14.5051L17.2699 7.13164L18.0135 6.81019L23.2978 12.6367L23.6693 12.4757L23.7399 12.6464L20.8969 13.8519L20.8263 13.6813L21.2883 13.4799L19.6811 11.752L17.9629 12.4751L18.1239 14.0021C18.1341 14.1125 18.154 14.1927 18.1637 14.253C18.1739 14.3031 18.1842 14.3435 18.1939 14.3737C18.2542 14.5039 18.3344 14.5842 18.4248 14.6041C18.5255 14.624 18.6757 14.5938 18.8669 14.5136L18.9375 14.4835L19.0279 14.6445L17.6209 15.2384ZM21.8504 5.52439L22.8552 6.24751L24.5626 11.22C24.6729 11.5415 24.7037 11.7628 24.6633 11.9033C24.6132 12.0444 24.4926 12.1446 24.2718 12.2248C24.2218 12.235 24.1711 12.2549 24.141 12.2652C24.1211 12.2652 24.0909 12.2754 24.0608 12.2851L24.1211 12.4558L25.8688 11.8527L25.8188 11.682C25.7844 11.693 25.751 11.7065 25.7186 11.7224C25.6748 11.7381 25.6314 11.7548 25.5883 11.7725C25.3773 11.843 25.2066 11.8328 25.0962 11.752C24.9756 11.6718 24.8652 11.4709 24.7543 11.1592L23.1368 6.45745L29.064 10.7472L30.2388 10.3456L28.1395 4.23802C28.0291 3.91657 27.9989 3.69525 28.0393 3.56497C28.0797 3.43468 28.2003 3.33398 28.4012 3.26343C28.4615 3.24352 28.5116 3.22361 28.5417 3.21337C28.5821 3.20312 28.6123 3.19288 28.6424 3.18321L28.5821 3.01253L26.8343 3.61561L26.8941 3.78628C26.9145 3.77604 26.9447 3.76637 26.9749 3.75613C27.005 3.74589 27.0454 3.72598 27.1051 3.70606C27.3162 3.63552 27.4767 3.64576 27.5973 3.72655C27.7179 3.80677 27.8283 4.0076 27.9386 4.30914L29.345 8.38729L24.0511 4.57028L21.5995 5.41402L21.6598 5.59494L21.8504 5.52439ZM37.9235 6.1872L38.1044 6.15705L38.5562 8.49766L38.4259 8.52782C38.3861 8.39753 38.3257 8.30707 38.2552 8.257C38.2214 8.231 38.1821 8.21299 38.1403 8.20432C38.0985 8.19565 38.0553 8.19654 38.014 8.20694C37.9941 8.20694 37.7631 8.34746 37.3307 8.62852C36.9175 8.8988 36.4575 9.08962 35.9743 9.1912C35.4725 9.28166 34.9798 9.2919 34.4979 9.20144C34.016 9.11098 33.5637 8.93006 33.1421 8.66891C32.7013 8.3984 32.3216 8.03919 32.027 7.6141C31.7352 7.19195 31.5446 6.71006 31.4444 6.17753C31.3238 5.57973 31.3341 4.9629 31.4746 4.36945C31.5964 3.78504 31.8545 3.23766 32.2279 2.77187C32.489 2.44018 32.8105 2.16879 33.1825 1.93837C33.5614 1.71706 33.9762 1.56415 34.408 1.48664C34.8803 1.38593 35.3821 1.38593 35.9146 1.48664C36.4471 1.57653 36.7185 1.61692 36.7384 1.61692C36.8289 1.59644 36.8994 1.55662 36.9398 1.4764C36.9899 1.40585 36.9995 1.31539 36.9899 1.21525L37.1406 1.1851L37.5924 3.53595L37.4513 3.5661C37.1304 2.81283 36.7384 2.27007 36.2764 1.94862C35.8144 1.61692 35.2819 1.50655 34.6993 1.61692C34.4382 1.67666 34.2174 1.76769 34.0359 1.89798C33.8495 2.04319 33.6984 2.22876 33.5939 2.44075C33.4534 2.70189 33.393 3.05349 33.393 3.46541C33.393 3.88756 33.4835 4.55037 33.6644 5.47489C33.855 6.44892 34.0058 7.1123 34.1264 7.47414C34.2368 7.83599 34.3779 8.12672 34.5286 8.35827C34.6993 8.60918 34.9201 8.7901 35.1915 8.8908C35.4731 9.00117 35.7644 9.02109 36.0858 8.96135C36.7384 8.83106 37.2209 8.52895 37.5423 8.03682C37.8632 7.55323 37.9941 6.94048 37.9235 6.1872ZM40.0035 8.23652L39.9933 8.06584L40.7164 7.98505L39.9728 0.892664L39.2395 0.963213L39.2292 0.79253L42.8152 0.421013L42.8351 0.591696L42.112 0.662245L42.4534 3.99736L44.9146 1.16462C45.0051 1.06448 45.0751 0.974021 45.1052 0.903473C45.1329 0.836614 45.1465 0.764752 45.145 0.6924C45.1348 0.591698 45.0745 0.521718 44.9846 0.471083C44.8941 0.421016 44.7633 0.410772 44.6028 0.421013L44.4822 0.441497L44.4623 0.250903L46.8632 0L46.8831 0.190594H46.853C46.5515 0.220748 46.2903 0.31064 46.0388 0.451736C45.7879 0.602505 45.5166 0.843165 45.2253 1.16462L43.9594 2.59095L47.4253 7.27217L47.988 7.21243L48.0079 7.39336L44.4117 7.77454L44.3918 7.59419L45.0045 7.52364L42.6036 4.09806L42.483 4.22892L42.8545 7.76487L43.5776 7.68465L43.5981 7.85533L40.0035 8.23652ZM53.9073 7.60386L53.9272 7.42294L54.0273 7.43318C54.2287 7.45309 54.3795 7.40303 54.4796 7.29265C54.5695 7.17204 54.6298 6.9712 54.6605 6.6799L55.3228 0.421582L54.6605 0.351033L54.6804 0.160439L57.483 0.451736L58.6886 5.30364L60.7379 0.802774L63.6714 1.10431L63.6515 1.27499L62.9283 1.19477L62.1847 8.29683L62.9079 8.37705L62.8879 8.54773L59.311 8.16597L59.3309 7.99529L60.0444 8.07608L60.7578 1.24484L57.6241 7.99529L57.2321 7.94523L55.4741 0.902904L54.8608 6.67934C54.8306 7.01103 54.8409 7.24202 54.912 7.36263C54.982 7.48325 55.1219 7.55323 55.333 7.58395C55.3939 7.58395 55.444 7.59419 55.4741 7.59419H55.5543L55.5441 7.77454L53.9073 7.60386ZM65.1381 6.58888L66.1929 2.0277L65.5694 1.88717L65.6103 1.69658L68.8038 2.42994L68.7537 2.6211L68.2417 2.50048L67.0674 7.59362C66.9963 7.92531 66.9462 8.18645 66.9263 8.38729C66.916 8.57845 66.9263 8.72922 66.9661 8.8396C67.056 9.08083 67.1971 9.28166 67.4184 9.4421C67.6397 9.60311 67.9009 9.72373 68.232 9.80395C68.8453 9.94504 69.3374 9.86425 69.6987 9.55304C70.06 9.25151 70.3319 8.66892 70.5333 7.80527L71.397 4.07815C71.467 3.7567 71.4772 3.53538 71.4169 3.4051C71.3668 3.27481 71.236 3.18435 71.0249 3.13371C70.9776 3.12679 70.9309 3.11672 70.8849 3.10356C70.857 3.10281 70.8296 3.09581 70.8047 3.08308L70.8446 2.90215L72.4615 3.27367L72.4217 3.46426L72.3312 3.44492C72.1599 3.40453 72.0092 3.44492 71.8988 3.5553C71.789 3.66567 71.6974 3.85626 71.6377 4.12765L70.7643 7.88492C70.5333 8.8999 70.1709 9.56272 69.6885 9.87393C69.206 10.1755 68.4829 10.2255 67.5185 9.99454C66.9064 9.85401 66.404 9.66285 66.0319 9.41195C65.6613 9.17259 65.3601 8.84003 65.1586 8.4476C65.0411 8.23174 64.9789 7.99014 64.9777 7.74439C64.9669 7.49292 65.0169 7.11116 65.1381 6.58888ZM71.8186 11.009L77.6849 13.1385L78.4484 11.0391L78.3181 10.989C77.9557 11.6524 77.5245 12.0643 77.0522 12.2344C76.5698 12.3955 75.9468 12.3448 75.193 12.0638L74.822 11.9227C74.731 11.8823 74.6508 11.8521 74.5808 11.8123L77.0107 5.12158L77.694 5.36281L77.7441 5.2018L74.3794 3.97631L74.3196 4.13675L75.0029 4.38765L72.5616 11.0983L71.8783 10.8474L71.8186 11.009ZM78.6794 13.601L78.7505 13.4406L79.4128 13.7421L82.3166 7.21243L81.6532 6.92114L81.7244 6.76013L84.9992 8.22685L84.9281 8.37762L84.276 8.08632L81.3722 14.5955C81.4422 14.6359 81.5235 14.6763 81.6032 14.7162C81.6834 14.7566 81.8143 14.8169 81.9645 14.8868C82.7081 15.2185 83.3214 15.309 83.8135 15.1884C84.296 15.0479 84.7483 14.6661 85.159 14.0329L85.2899 14.0932L84.3853 16.122L78.6794 13.601ZM85.1989 16.6244L90.7147 19.5578L91.7491 17.6086L91.6182 17.5387C91.1659 18.1417 90.6846 18.4831 90.1924 18.573C89.7003 18.6737 89.0967 18.5332 88.3832 18.1514C88.2933 18.1008 88.2034 18.0507 88.1022 17.991C88.0019 17.9306 87.9016 17.8703 87.8012 17.81L89.4892 14.6559C89.5393 14.686 89.5894 14.7059 89.6491 14.7361C89.71 14.7662 89.8004 14.8169 89.9 14.8664C90.4234 15.148 90.7443 15.429 90.8547 15.7306C90.9759 16.0122 90.9144 16.4042 90.6948 16.8656L90.8149 16.9362L92.1815 14.3748L92.0506 14.3042C91.7895 14.7361 91.5181 14.9972 91.2273 15.0678C90.9463 15.1377 90.564 15.0575 90.0917 14.8066C90.0115 14.7662 89.9307 14.7162 89.8408 14.6661C89.7509 14.6058 89.6696 14.5557 89.5797 14.4948L91.1466 11.5415C91.2279 11.5819 91.3178 11.6217 91.3975 11.6621C91.4885 11.7025 91.6188 11.7725 91.7798 11.8527C92.4534 12.2145 92.8744 12.5861 93.0553 12.9877C93.2465 13.3792 93.2266 13.8821 93.0053 14.4846L93.1054 14.5449L94.01 12.8472L88.7064 10.0344L88.625 10.1851L89.2685 10.5271L85.9226 16.8155L85.2802 16.4736L85.1989 16.6244ZM98.2389 15.6703L96.4013 18.4831C96.4314 18.503 96.4513 18.5229 96.4912 18.5531C96.5213 18.573 96.581 18.6128 96.6624 18.6635C97.1244 18.9644 97.4959 19.0754 97.7667 19.0151C98.0279 18.9445 98.3288 18.6635 98.6412 18.1713C99.0525 17.5387 99.2437 17.0664 99.2232 16.7348C99.193 16.4133 98.9518 16.1021 98.5001 15.821C98.4444 15.7908 98.3906 15.7572 98.3391 15.7203C98.3077 15.6999 98.2741 15.6831 98.2389 15.6703ZM91.8395 20.2212L91.9305 20.0801L92.5427 20.4824L96.4308 14.5045L95.8175 14.1028L95.9086 13.9623L98.7811 15.8307C99.7756 16.4634 100.399 17.0266 100.65 17.5284C100.911 18.0206 100.861 18.5332 100.509 19.0651C100.238 19.4975 99.857 19.7388 99.3632 19.7985C98.8807 19.8582 98.3288 19.7279 97.7263 19.4071C98.1587 19.7888 98.4494 20.0898 98.5996 20.3009C98.7606 20.5119 98.8505 20.723 98.8807 20.9238C98.912 21.1042 98.8921 21.2857 98.821 21.4769C98.7612 21.6674 98.6099 21.9388 98.3687 22.3001L97.7764 23.2241C97.6461 23.4152 97.5852 23.5455 97.575 23.6263C97.575 23.6963 97.6051 23.7566 97.6859 23.8067C97.7457 23.8465 97.8361 23.8573 97.9471 23.8465C98.0569 23.8266 98.198 23.7867 98.3795 23.7162L98.4494 23.867C98.2082 23.9972 97.9573 24.0576 97.7058 24.0376C97.4447 24.0177 97.1836 23.917 96.9122 23.7367C96.4599 23.4448 96.209 23.0835 96.1475 22.6614C96.0974 22.2296 96.2386 21.7573 96.5799 21.2254L97.1631 20.331C97.3633 20.03 97.4345 19.7689 97.3633 19.5675C97.3036 19.3661 97.072 19.1357 96.6709 18.874C96.5799 18.8142 96.4997 18.7642 96.4496 18.734C96.3996 18.7033 96.3484 18.6737 96.2983 18.6435L94.3394 21.647L94.9528 22.0486L94.8617 22.1892L91.8395 20.2212ZM38.567 26.8914V28.1368C38.1955 28.4082 37.8131 28.6091 37.4217 28.7399C37.0303 28.8708 36.6178 28.9413 36.1763 28.9413C35.2825 28.9413 34.5787 28.6796 34.0564 28.1573C33.5341 27.6453 33.273 26.9421 33.273 26.0579C33.273 25.7166 33.3128 25.3951 33.3834 25.1141C33.4636 24.8222 33.5842 24.5514 33.7452 24.2999C33.9864 23.9182 34.3176 23.607 34.7397 23.3862C35.1619 23.1655 35.6239 23.0545 36.1057 23.0545C36.4828 23.0536 36.8558 23.1324 37.2004 23.2855C37.2223 23.2913 37.2429 23.3016 37.2607 23.3157C37.2908 23.3259 37.3312 23.3458 37.3711 23.3657C37.5122 23.426 37.6123 23.4562 37.6726 23.4562C37.7329 23.4562 37.7932 23.4363 37.8433 23.3965C37.8933 23.3458 37.9337 23.2861 37.9639 23.2161H38.064V25.0242H37.9537C37.833 24.4211 37.622 23.9591 37.3506 23.6479C37.069 23.3361 36.7179 23.1763 36.306 23.1763C35.8139 23.1763 35.4623 23.397 35.2614 23.8283C35.0606 24.2504 34.9599 25.0339 34.9599 26.1592C34.9599 27.1435 35.0504 27.8364 35.2313 28.2387C35.4122 28.6301 35.7234 28.831 36.1558 28.831C36.4875 28.831 36.7282 28.7411 36.8789 28.5698C37.0195 28.3895 37.0997 28.1078 37.0997 27.7266V26.8926H36.6479V26.7623H38.9482V26.8926H38.567V26.8914ZM39.6315 28.7997V28.679H40.1839V23.3248H39.6315V23.1945H44.142V24.631H44.0515C43.981 24.1588 43.8205 23.8169 43.5588 23.6161C43.2977 23.4255 42.8761 23.3248 42.3134 23.3248H41.992C41.9214 23.335 41.8509 23.335 41.7809 23.3447V25.8463C41.8611 25.8565 41.9419 25.8565 42.0221 25.8662H42.2332C42.6355 25.8662 42.9165 25.7957 43.0769 25.6449C43.2476 25.4941 43.3381 25.2233 43.3483 24.8507H43.4587V27.0308H43.358C43.3478 26.6394 43.2476 26.368 43.0667 26.2172C42.8858 26.0562 42.5746 25.976 42.1325 25.976H41.9214C41.8714 25.976 41.8213 25.9863 41.7809 25.9863V28.6682C41.8714 28.6785 41.9618 28.6785 42.042 28.6882H42.2833C42.8864 28.6882 43.3381 28.5778 43.6294 28.3371C43.9304 28.0959 44.1215 27.7045 44.212 27.1514H44.3224V28.7991L39.6315 28.7997ZM45.388 23.3452H45.2372V23.1945H47.1761L49.9992 27.2027V23.958C49.9992 23.7173 49.9691 23.5563 49.8985 23.4664C49.828 23.376 49.7176 23.3356 49.5469 23.3356H49.3865V23.195H50.7627V23.3356H50.5716C50.4106 23.3356 50.3002 23.376 50.2399 23.4562C50.1898 23.537 50.1597 23.7071 50.1597 23.9586V28.8008H49.2255L46.0713 24.3102V28.0373C46.0713 28.2984 46.1014 28.4594 46.1617 28.5493C46.222 28.6301 46.3427 28.6796 46.5031 28.6796C46.5532 28.6796 46.5936 28.6796 46.6135 28.6694H46.6937V28.7997H45.3072V28.6694H45.3675C45.3874 28.6796 45.4176 28.6796 45.458 28.6796C45.6383 28.6796 45.7492 28.6295 45.8192 28.5493C45.8795 28.4594 45.9199 28.2882 45.9199 28.0373V24.0991L45.388 23.3452ZM51.4756 28.7997V28.679H52.0178V23.3248H51.4756V23.1945H55.9759V24.631H55.8849C55.8149 24.1588 55.655 23.8169 55.3939 23.6161C55.1328 23.4255 54.7203 23.3248 54.1485 23.3248H53.8265C53.7565 23.335 53.6865 23.335 53.6154 23.3447V25.8463C53.7064 25.8565 53.7764 25.8565 53.8566 25.8662H54.0779C54.4699 25.8662 54.7516 25.7957 54.9222 25.6449C55.0821 25.4941 55.1731 25.2233 55.1936 24.8507H55.3034V27.0308H55.2033C55.1834 26.6394 55.0821 26.368 54.9023 26.2172C54.7214 26.0562 54.4102 25.976 53.9676 25.976H53.7565C53.7064 25.976 53.6666 25.9863 53.6154 25.9863V28.6682C53.7064 28.6785 53.7963 28.6785 53.8777 28.6882H54.1286C54.7311 28.6882 55.1834 28.5778 55.4741 28.3371C55.7654 28.0959 55.9566 27.7045 56.0465 27.1514H56.1574V28.7991L51.4756 28.7997ZM59.5523 28.7997H59.0197L57.0706 23.3447H56.7593V23.1939H59.0493V23.3447H58.708L60.0034 26.9916L60.9979 23.9472C61.0082 23.8971 61.0281 23.8368 61.0378 23.7765C61.0474 23.7162 61.048 23.6559 61.048 23.5853C61.048 23.5051 61.0179 23.4448 60.9479 23.405C60.8881 23.3646 60.7766 23.3447 60.6469 23.3447H60.5655V23.1939H61.8013V23.3447C61.791 23.3344 61.7814 23.3344 61.7615 23.3344H61.7114C61.5805 23.3344 61.4702 23.3947 61.3803 23.5154C61.2892 23.6456 61.1789 23.8772 61.0679 24.2288L59.5523 28.7997ZM62.1244 28.7997V28.679H62.6769V23.3248H62.1244V23.1945H66.635V24.631H66.5451C66.474 24.1588 66.3141 23.8169 66.0518 23.6161C65.7907 23.4255 65.3793 23.3248 64.8064 23.3248H64.4855C64.4156 23.335 64.3456 23.335 64.2745 23.3447V25.8463C64.3558 25.8565 64.4355 25.8565 64.5157 25.8662H64.7268C65.129 25.8662 65.4101 25.7957 65.5699 25.6449C65.7412 25.4941 65.8322 25.2233 65.8424 24.8507H65.9523V27.0308H65.8521C65.8419 26.6394 65.7412 26.368 65.5597 26.2172C65.3799 26.0562 65.0687 25.976 64.6261 25.976H64.415C64.3649 25.976 64.3137 25.9863 64.2739 25.9863V28.6682C64.3649 28.6785 64.4548 28.6785 64.535 28.6882H64.7763C65.3799 28.6882 65.8316 28.5778 66.1229 28.3371C66.4239 28.0959 66.6151 27.7045 66.705 27.1514H66.8159V28.7991L62.1244 28.7997Z" fill="white" fill-opacity="0.34"/>
</svg>
