<svg width="70" height="29" viewBox="0 0 70 29" fill="none" xmlns="http://www.w3.org/2000/svg">
<path d="M40.9111 28.4874H40.1835L38.433 24.1707H39.2515L40.5478 27.6016L41.8432 24.1707H42.6621L40.9111 28.4874ZM23.4723 24.807L22.9719 25.2616C22.6539 24.8749 22.2444 24.671 21.7217 24.671C20.7892 24.671 20.1071 25.3524 20.1071 26.3064C20.1071 27.2611 20.7892 28.0104 21.7669 28.0104C22.2217 28.0104 22.608 27.8284 22.9717 27.5559L22.9491 26.3522H20.7892L21.1986 25.6702H23.6543V27.8057C23.1085 28.283 22.5402 28.6009 21.7897 28.6009C20.4712 28.6009 19.4023 27.6468 19.4023 26.3064C19.4023 24.9662 20.4482 24.0348 21.7443 24.0348C22.4718 24.0348 23.0175 24.2619 23.4723 24.807ZM24.5181 28.4874V24.1707H28.4061L27.8603 24.875H25.2913V25.6025H27.8603V26.329H25.2913V27.7832H27.8603L28.4061 28.4875L24.5181 28.4874ZM29.0882 28.4874V24.1707H29.6565L32.544 27.1699V24.1707H33.2943V28.4874H32.7942L29.8384 25.4204V28.4874H29.0882ZM35.1813 23.4664H35.9998L36.4775 23.8532H35.7043L35.1813 23.4664ZM34.1356 28.4874V24.1707H38.0236L37.4782 24.875H34.9085V25.6025H37.478V26.329H34.9085V27.7832H37.478L38.0235 28.4875L34.1356 28.4874ZM43.0029 28.4874V24.1707H46.8906L46.3679 24.875H43.776V25.6025H46.3679V26.329H43.776V27.7832H46.3679L46.8906 28.4875L43.0029 28.4874ZM13.6044 0.726683H12.7407C9.44392 0.703951 1.23607 1.38564 1.23607 6.20153C1.23607 8.6322 3.75977 9.65445 5.87394 9.65445C6.16971 9.65445 6.48809 9.63186 6.80646 9.60927C8.37532 7.58736 10.2395 5.79291 12.377 4.36147C14.446 2.95262 17.8564 1.0448 20.4482 1.0448C21.0849 1.0448 21.8807 1.49916 21.8807 2.2033C21.8807 4.54304 16.9013 7.60995 14.9007 8.45062C12.9223 9.29102 10.717 9.85905 8.57979 10.1314C7.37497 11.8356 5.87408 13.9256 5.87408 16.0838C5.87408 16.8331 6.48823 17.2421 7.19295 17.2421C10.0808 17.2421 14.4233 14.6299 14.4233 11.404C14.4233 10.8135 13.9686 10.4954 13.4229 10.4954C11.2855 10.4954 8.94353 12.5399 7.96607 14.3344L7.82971 14.3118C8.44343 12.0627 11.2629 9.9048 13.5592 9.9048C14.5371 9.9048 15.3328 10.6317 15.3328 11.6313C15.3328 12.4491 15.0145 13.1759 14.6733 13.8801C15.5372 13.4488 16.4013 12.994 17.2424 12.517L20.2208 8.95046L22.0624 6.74697C22.9719 5.67896 25.1775 3.0211 26.7237 3.0211C27.0649 3.0211 27.2692 3.31663 27.2692 3.63431C27.2692 6.76956 21.9034 10.2908 19.3797 11.6082L19.0614 12.0172C19.9934 11.6082 20.926 11.1085 21.9488 11.1085C22.4492 11.1085 22.9719 11.4493 22.9719 11.9946C22.9719 12.3127 22.8581 12.6309 22.6766 12.8808L19.8571 16.8788C19.8117 16.9468 19.7433 17.0378 19.7433 17.1286C19.7433 17.1741 19.8117 17.2421 19.8797 17.2421C20.7438 17.2421 22.517 15.7431 23.1765 15.175C24.2224 13.2894 26.4507 11.1085 28.747 11.1085C29.6112 11.1085 30.2702 11.6764 30.2702 12.5625C30.2702 13.1757 30.0432 13.721 29.7701 14.2437C31.9529 13.1075 34.0675 11.6538 35.5907 9.72279L37.0233 7.90533L38.4782 7.92792L35.0223 12.3805C35.7727 11.8582 36.7501 11.2676 37.705 11.2676C38.1144 11.2676 38.5239 11.6536 38.5239 12.0624C38.5239 12.2443 38.433 12.4261 38.3417 12.585L35.545 16.6741C35.4998 16.7191 35.477 16.7878 35.477 16.833C35.477 16.9465 35.5681 17.015 35.6591 17.015C36.7278 17.015 37.9096 15.8792 38.7282 15.243C40.024 13.3803 42.0479 11.1085 44.526 11.1085C45.3216 11.1085 45.9583 11.5175 46.2541 12.2444L46.9132 11.3131H48.3683L44.5031 16.6515C44.435 16.7194 44.3893 16.8331 44.3893 16.9243C44.3893 17.0606 44.5031 17.1059 44.6167 17.1059C46.1174 17.1059 49.596 12.8124 50.1646 11.381C49.9826 11.2678 49.9146 11.1311 49.9146 10.9271C49.9146 10.359 50.392 9.45043 51.074 9.45043C51.4377 9.45043 51.5744 9.88178 51.5744 10.1772C51.5744 10.4727 51.5058 10.745 51.4151 11.0406C51.8926 11.0406 52.9839 11.0406 52.9839 11.7447C52.9839 12.0172 52.8703 12.267 52.7109 12.4716L50.0052 16.4241C49.9148 16.5379 49.8235 16.697 49.8235 16.8558C49.8235 16.9925 49.9375 17.0606 50.0736 17.0606C51.6425 17.0606 53.2797 15.3792 54.2573 14.2663C55.3482 12.6986 57.0313 10.9722 59.0998 10.9722C59.9183 10.9722 60.4869 11.5403 60.6915 12.3126L68.1038 2.54386L69.5817 2.56674L59.4185 15.9697C59.2595 16.1746 59.0547 16.4471 59.0547 16.7194C59.0547 16.8787 59.1683 17.0151 59.3273 17.0151C60.8281 17.0151 62.8744 14.4026 63.6698 13.2668L63.852 13.3351C62.8972 15.0614 60.8966 17.7874 58.6682 17.7874C58.1223 17.7874 57.7586 17.3558 57.7586 16.8109C57.7586 16.6973 57.7818 16.561 57.8041 16.4474C56.9177 17.038 55.9851 17.6971 54.8938 17.6971C54.1891 17.6971 53.4843 17.288 53.4843 16.5154C53.4843 16.2656 53.5296 15.9933 53.598 15.7434C52.4838 16.5839 51.0518 17.5608 49.5963 17.5608C49.096 17.5608 48.6642 17.2424 48.6642 16.7197C48.6642 16.2429 48.8915 15.8565 49.1646 15.4704L51.5745 12.0627C51.6426 11.9722 51.7567 11.8585 51.7567 11.7676C51.7567 11.6083 51.4152 11.6083 51.3016 11.6083H51.1656C50.0514 13.5851 46.5496 17.7195 44.1172 17.7195C43.6398 17.7195 43.1851 17.3788 43.1851 16.879C43.1851 16.7426 43.2074 16.5838 43.2303 16.4474C42.2298 17.0609 41.1612 17.7195 39.9562 17.7195C39.0243 17.7195 38.592 17.0381 38.592 16.1976V16.1521C37.6824 16.7884 36.3865 17.7424 35.2272 17.7424C34.6587 17.7424 34.204 17.3559 34.204 16.7659C34.204 16.3108 34.4313 15.8798 34.7041 15.4932L36.9552 12.4493C37.0236 12.3583 37.0913 12.2447 37.0913 12.1538C37.0913 12.1086 37.0688 12.0628 37.0234 12.0628C35.6591 12.0628 32.5896 15.4706 31.8165 16.4704L27.4512 22.0813L25.837 22.0586L32.976 13.0173C31.7711 13.8804 30.4523 14.5165 29.1564 15.1982C27.9512 16.4928 26.3144 17.7425 24.45 17.7425C23.6997 17.7425 23.0175 17.2198 23.0175 16.4246C23.0175 16.2431 23.0401 16.0386 23.0628 15.8567L22.449 16.2887C21.4943 16.9249 20.2665 17.9014 19.0838 17.9014C18.6749 17.9014 18.379 17.5378 18.379 17.1292C18.379 16.6522 18.6521 16.2432 18.9021 15.8799L21.5622 12.154C21.6306 12.0861 21.6532 11.9726 21.6532 11.8815C21.6532 11.7906 21.5622 11.7227 21.4712 11.7227C20.3573 11.7227 18.22 13.6081 17.4016 14.267L14.8323 17.72H12.8771L16.1286 13.8353C15.4357 14.1925 14.7383 14.5409 14.0366 14.8802C12.3544 16.493 10.4215 17.9697 7.98868 17.9697C6.12449 17.9697 4.82823 16.7662 4.82823 14.9028C4.82823 13.199 5.53338 11.6319 6.44244 10.2232C6.28347 10.2458 6.10174 10.2458 5.94234 10.2458C3.55515 10.2451 0.462952 9.08657 0.462952 6.24685C0.462952 1.61268 7.30657 0.340515 10.7628 0.340515C11.7402 0.340515 12.6951 0.431014 13.6502 0.567698L13.6044 0.726683ZM9.10279 9.35936C11.2171 9.08657 13.3318 8.38228 15.2417 7.40564C16.6969 6.67848 20.8802 3.92969 20.8802 1.97598C20.8802 1.79411 20.6528 1.72606 20.5164 1.72606C18.6065 1.72606 15.5827 3.83862 14.1274 4.83828C12.2403 6.1106 10.6034 7.63297 9.10279 9.35936ZM20.3802 10.2451C22.0624 9.29102 26.6781 5.65623 26.6781 3.77085C26.6781 3.72524 26.6324 3.67992 26.5871 3.67992C25.0639 3.67992 21.2897 9.04124 20.3802 10.2451ZM28.0651 14.9932C27.9741 14.8343 27.9061 14.6751 27.9061 14.4705C27.9061 13.6301 28.6792 13.2441 29.4066 13.1757C29.5655 12.8806 29.7477 12.5625 29.7477 12.2217C29.7477 11.9037 29.4293 11.8126 29.1793 11.8126C27.4288 11.8126 24.0408 15.0384 24.0408 16.7423C24.0408 17.0151 24.1998 17.2421 24.4729 17.2421C25.8824 17.2421 27.2692 16.061 28.0651 14.9932ZM45.6175 12.4032C45.6175 11.9946 45.3449 11.6991 44.9126 11.6991C43.2073 11.6991 39.8648 15.0158 39.8648 16.7655C39.8648 16.9925 40.0469 17.1965 40.2742 17.1965C41.9795 17.1965 45.6175 14.1528 45.6175 12.4032ZM60.0554 12.2444C60.0554 11.9263 59.8961 11.5403 59.5095 11.5403C57.7586 11.5403 54.6666 15.0841 54.6666 16.6971C54.6666 16.9927 54.8938 17.2194 55.1896 17.2194C56.758 17.2193 60.0554 13.8573 60.0554 12.2444Z" fill="white" fill-opacity="0.34"/>
</svg>
