<svg width="53" height="29" viewBox="0 0 53 29" fill="none" xmlns="http://www.w3.org/2000/svg">
<g clip-path="url(#clip0_1106_796)">
<path fill-rule="evenodd" clip-rule="evenodd" d="M20.1959 5.10387C20.2748 5.10387 20.3508 5.09132 20.4239 5.07296L23.0484 13.9935H23.0512C23.3427 14.9896 24.7935 15.7454 26.5356 15.7454C28.2822 15.7454 29.73 14.9896 30.0243 13.9935L32.6487 5.07869C32.7122 5.09278 32.7781 5.1039 32.8473 5.1039C33.3581 5.1039 33.7716 4.69032 33.7716 4.18054C33.7716 3.67117 33.3581 3.2576 32.8473 3.2576C32.339 3.2576 31.9253 3.67117 31.9253 4.18054C31.9253 4.54666 32.1394 4.86323 32.4488 5.01096L29.4093 11.5279L29.8975 2.74534H29.9187C30.4267 2.74534 30.8402 2.3332 30.8402 1.82485C30.8402 1.31405 30.4267 0.901878 29.9187 0.901878C29.4093 0.901878 28.9955 1.31405 28.9955 1.82485C28.9955 2.24567 29.2782 2.59901 29.6611 2.71001L27.6377 11.2944L26.6624 1.83494C27.1112 1.77008 27.4531 1.38601 27.4531 0.920272C27.4531 0.413329 27.0407 -0.000244141 26.5313 -0.000244141C26.0204 -0.000244141 25.6084 0.413329 25.6084 0.920272C25.6084 1.38604 25.9559 1.77295 26.4048 1.83494L25.4311 11.2775L23.4115 2.71139C23.7998 2.60193 24.0855 2.24848 24.0855 1.82482C24.0855 1.31402 23.6734 0.901849 23.1625 0.901849C22.6531 0.901849 22.2392 1.31402 22.2392 1.82482C22.2392 2.33317 22.6531 2.74531 23.1625 2.74531H23.1766L23.6647 11.5236L20.6181 4.99824C20.915 4.84487 21.1192 4.5368 21.1192 4.18049C21.1192 3.67112 20.7053 3.25754 20.1958 3.25754C19.685 3.25754 19.2743 3.67112 19.2743 4.18049C19.2743 4.69027 19.6851 5.10387 20.1959 5.10387ZM26.5215 13.2449C28.1175 13.2449 29.4133 13.6517 29.4133 14.1523C29.4133 14.6564 28.1175 15.0616 26.5215 15.0616C24.9242 15.0616 23.6313 14.6564 23.6313 14.1523C23.6313 13.6517 24.9242 13.2449 26.5215 13.2449Z" fill="white" fill-opacity="0.34"/>
<path fill-rule="evenodd" clip-rule="evenodd" d="M16.3288 19.4857C13.6816 19.4857 11.537 21.6345 11.537 24.2139C11.537 26.7948 13.6816 28.9408 16.3288 28.9408C18.9731 28.9408 21.1191 26.7948 21.1191 24.2139C21.1191 21.6345 18.9731 19.4857 16.3288 19.4857ZM18.3199 26.944C18.1708 27.1663 17.9853 27.3647 17.7684 27.5266C17.4153 27.8067 17.01 27.9713 16.582 27.9879C16.4992 27.9965 16.4132 28.0009 16.3288 28.0009C16.2416 28.0009 16.1559 27.9965 16.0727 27.9879C15.645 27.9713 15.2408 27.8067 14.8864 27.5266C14.6699 27.3647 14.4839 27.1663 14.3349 26.944C13.838 26.2588 13.5272 25.2918 13.5272 24.2222C13.5272 23.2173 13.8012 22.3043 14.2476 21.6302C14.4952 21.1857 14.8864 20.8307 15.3648 20.6254C15.3677 20.6241 15.3734 20.6226 15.3759 20.6197C15.3986 20.61 15.421 20.6003 15.445 20.5931C15.5085 20.5679 15.573 20.5423 15.6393 20.5257C15.8562 20.4623 16.0897 20.427 16.3288 20.427C16.568 20.427 16.8004 20.4623 17.0169 20.5257C17.0832 20.5423 17.1477 20.5679 17.2096 20.5917C17.2338 20.6003 17.2561 20.61 17.2802 20.6197C17.2842 20.6226 17.287 20.6241 17.2914 20.6254C17.767 20.8307 18.161 21.1857 18.4085 21.6302C18.8535 22.3056 19.129 23.2173 19.129 24.2222C19.129 25.2918 18.8168 26.2588 18.3199 26.944Z" fill="white" fill-opacity="0.34"/>
<path fill-rule="evenodd" clip-rule="evenodd" d="M30.6115 25.1995H29.9456V26.5321C29.9274 27.3287 29.2745 27.972 28.4722 27.972C28.4694 27.972 28.4655 27.9707 28.464 27.9707V27.9731H25.6619V20.4882H26.9455V19.8199H22.317V20.4882H23.602V27.9731H22.317V28.6404H30.6115V28.6375H30.614V26.459H30.6115V25.1995Z" fill="white" fill-opacity="0.34"/>
<path fill-rule="evenodd" clip-rule="evenodd" d="M40.7323 19.8238H32.0102V20.4896H33.2696V27.9775H32.0102V28.6475H40.7788V25.4696H40.1105V26.5211C40.0978 27.3286 39.4404 27.9789 38.6327 27.9789H38.6245V27.9818H36.2474V27.9789H35.3285V24.2625H35.9971C36.0024 24.2625 36.0083 24.2639 36.0154 24.2639H36.3855C36.9835 24.2694 37.4647 24.7535 37.4647 25.353V25.8624H38.0739V22.1712H37.4676V22.5988H37.4647C37.4647 22.6074 37.4676 22.6158 37.4676 22.623C37.4676 23.221 36.9863 23.6489 36.3854 23.6529H35.3284V20.4896H38.6412C39.4461 20.4924 40.0978 21.1452 40.1104 21.9491V22.855H40.7787V19.8238H40.7323Z" fill="white" fill-opacity="0.34"/>
<path fill-rule="evenodd" clip-rule="evenodd" d="M52.1728 28.0051C51.5311 27.9883 51.3819 27.7887 50.8881 27.2227L47.9665 23.5882L49.8973 21.28V21.2829C50.4179 20.6892 50.5603 20.4878 51.2256 20.4737H51.7282V19.8307H48.1707V20.4737H48.9543V20.4766H48.9557C49.1246 20.4766 49.2597 20.6117 49.2597 20.7778C49.2597 20.8437 49.2388 20.9043 49.2021 20.9536L47.4923 22.9969L46.1471 21.3224L45.8655 20.9677C45.8233 20.9157 45.7937 20.8495 45.7937 20.7792C45.7937 20.6117 45.9303 20.4765 46.0978 20.4737H46.8633V19.8306H42.4106V20.4737H42.6202C43.1901 20.5003 43.3523 20.6959 43.7997 21.2069L46.385 24.4224L44.0573 27.2017V27.1961C43.5379 27.7887 43.396 27.9926 42.7258 28.0051H42.183V28.6482H45.9908V28.0051H45.0549V28.0037C45.0535 28.0037 45.0535 28.0037 45.052 28.0037C44.8848 28.0037 44.7483 27.8686 44.7483 27.7001C44.7483 27.6279 44.775 27.5635 44.8171 27.5113L46.8842 25.0445L48.6012 27.1834L48.8631 27.5113C48.9024 27.5635 48.9291 27.6268 48.9291 27.6986C48.9291 27.8672 48.7954 28.0037 48.6264 28.0037C48.6264 28.0037 48.6264 28.0023 48.625 28.0023V28.0037H47.8018V28.6482H52.6022V28.0051L52.1728 28.0051Z" fill="white" fill-opacity="0.34"/>
<path fill-rule="evenodd" clip-rule="evenodd" d="M10.026 27.9623L9.44195 26.2666C9.17031 25.5135 8.97477 25.1745 8.54822 24.7834C8.26834 24.533 7.87708 24.4106 7.58565 24.3272C8.66925 24.1559 9.49824 23.213 9.49824 22.0814C9.49824 20.8274 8.48084 19.8073 7.22281 19.8073C7.21024 19.8073 7.19728 19.8087 7.18035 19.8087V19.8073H0.459379V20.47H1.69948V27.9665H0.435547V28.6321H5.02745V27.9665H3.75802V24.3655H4.74468C4.77571 24.3655 4.80369 24.367 4.83478 24.3684H5.03576C5.34956 24.3796 5.62125 24.4261 5.86761 24.4962C6.09409 24.5539 6.33478 24.6342 6.49655 24.7369C6.71458 24.8763 6.94548 25.0734 7.14974 25.422C7.20304 25.5151 7.24948 25.608 7.29308 25.7023C7.66879 26.4075 7.89395 27.384 8.14432 28.628H9.65992V28.6295H11.0279V27.9622L10.026 27.9623ZM5.91118 23.694H3.76372V20.4686H5.91118C6.83445 20.5039 7.57439 21.1455 7.57439 22.0801C7.57439 23.016 6.83556 23.6548 5.91118 23.694Z" fill="white" fill-opacity="0.34"/>
</g>
<defs>
<clipPath id="clip0_1106_796">
<rect width="52.1666" height="28.9413" fill="white" transform="translate(0.434692)"/>
</clipPath>
</defs>
</svg>
