<svg width="61" height="29" viewBox="0 0 61 29" fill="none" xmlns="http://www.w3.org/2000/svg">
<g clip-path="url(#clip0_1106_793)">
<path d="M29.7958 0.719528C33.2383 0.719528 35.3533 3.55432 35.3533 6.6463C35.3533 9.65638 33.655 12.0917 31.3188 13.8375L31.4308 14.0458H36.8921L38.0775 11.7871H37.5013L36.7484 12.9078H33.9452C35.8835 11.53 37.5013 9.36759 37.5013 6.70952C37.4999 2.46667 33.6708 -0.000305176 29.7958 -0.000305176C25.9193 -0.000305176 22.0917 2.46667 22.0917 6.71096C22.0917 9.36902 23.7081 11.5314 25.6463 12.9093H22.8446L22.0931 11.7886H21.5155L22.7009 14.0472H28.1621L28.2742 13.8389C25.9366 12.0932 24.2383 9.65782 24.2383 6.64774C24.2383 3.55576 26.3518 0.719528 29.7958 0.719528ZM0.933472 23.0142C0.933472 26.2341 3.55993 28.8606 6.77978 28.8606C9.9982 28.8606 12.6261 26.2327 12.6261 23.0142C12.6261 19.7944 9.9982 17.1694 6.77978 17.1694C3.55993 17.1694 0.933472 19.7958 0.933472 23.0142ZM14.787 28.6206L16.902 21.8289L19.9609 28.941L23.0199 21.8289L25.1334 28.6206H26.8963L23.2598 17.0889L19.9609 24.7772L16.6621 17.0889L13.027 28.6206H14.787ZM10.945 23.0142C10.945 25.3692 9.11888 27.2269 6.78122 27.2269C4.44212 27.2269 2.61596 25.3692 2.61596 23.0142C2.61596 20.6593 4.44212 18.8016 6.78122 18.8016C9.11888 18.8016 10.945 20.6608 10.945 23.0142ZM50.2485 28.6206L51.4181 26.3146H57.3765L58.546 28.6206H60.4354L54.3966 16.7685L48.3591 28.6206H50.2485ZM42.6723 18.8016C40.3332 18.8016 38.5085 20.6593 38.5085 23.0142C38.5085 25.3692 40.3347 27.2269 42.6723 27.2269C44.5789 27.2269 46.2284 25.9611 46.6925 24.2312H42.7686V22.5976H48.5028C48.5186 22.7255 48.5186 22.8691 48.5186 23.0142C48.5186 26.2341 45.8922 28.8606 42.6723 28.8606C39.4525 28.8606 36.8274 26.2327 36.8274 23.0142C36.8274 19.7944 39.4539 17.1694 42.6723 17.1694C44.6422 17.1694 46.3879 18.1464 47.4454 19.6507L46.1005 20.6119C45.3649 19.5228 44.1149 18.8016 42.6723 18.8016ZM28.3389 17.4093V28.6206H35.1464V26.987H30.0199V23.816H34.9855V22.1823H30.0199V19.043H35.1464V17.4093H28.3389ZM54.3966 20.4683L56.5431 24.6809H52.25L54.3966 20.4683Z" fill="white" fill-opacity="0.34"/>
</g>
<defs>
<clipPath id="clip0_1106_793">
<rect width="59.5019" height="28.9413" fill="white" transform="translate(0.932739)"/>
</clipPath>
</defs>
</svg>
