<svg width="66" height="29" viewBox="0 0 66 29" fill="none" xmlns="http://www.w3.org/2000/svg">
<g clip-path="url(#clip0_1106_778)">
<mask id="mask0_1106_778" style="mask-type:luminance" maskUnits="userSpaceOnUse" x="0" y="0" width="65" height="29">
<path d="M64.9753 0H0.398926V28.7276H64.9753V0Z" fill="white"/>
</mask>
<g mask="url(#mask0_1106_778)">
<path d="M45.8801 18.3706C41.6054 18.3706 39.1426 15.3541 39.1426 11.1766C39.1426 8.65549 40.6582 4.14282 45.9383 4.14282C48.3234 4.14282 48.95 5.07062 49.7807 5.07062C50.0964 5.07062 50.3101 4.91032 50.3733 4.32255H50.7279L50.8833 8.51948H50.4704C49.941 6.11499 48.1825 4.9346 46.1181 4.9346C45.0348 4.9346 44.0293 5.30864 43.2424 6.11499C42.2369 7.13994 41.6054 8.83522 41.6054 11.1766C41.6054 14.8197 43.223 17.4234 46.3367 17.4234C48.4254 17.4234 49.7272 16.5976 50.7473 14.98L51.1019 15.1792C50.0576 17.2097 48.3234 18.3706 45.8801 18.3706ZM37.7048 6.27529L33.3087 18.1763H32.9541L29.8404 9.22869L26.1147 18.1763H25.76L21.4854 5.80411C21.2279 5.07547 20.9122 4.70144 19.9115 4.64315V4.28369H25.0314V4.63829C24.0259 4.69658 23.749 5.03176 23.749 5.48351C23.749 5.72153 23.885 6.15385 24.0259 6.52788L26.7073 14.3097L29.3692 7.82971L28.6211 5.62438C28.3831 4.95403 28.0091 4.69658 27.125 4.63829V4.28369H32.2303V4.63829C31.0499 4.65772 30.9091 5.05119 30.9091 5.36693C30.9091 5.58552 30.9868 5.92069 31.1276 6.29472L33.809 14.0377L36.3447 7.12051C36.6798 6.21214 36.777 5.66324 36.777 5.44465C36.777 4.91032 36.3641 4.69658 35.378 4.63829V4.28369H39.7741V4.63829C38.7297 4.69658 38.176 5.01233 37.7048 6.27529ZM13.9222 18.0792V17.7246C14.986 17.6663 15.4766 17.4282 15.4766 16.5442V5.82354C15.4766 4.9346 14.986 4.68201 14.0193 4.64315V4.28369H18.9838V4.63829C18.0365 4.67715 17.5459 4.9346 17.5459 5.81868V16.5393C17.5459 17.4234 18.0365 17.6614 19.1052 17.7197V18.0743H13.9222V18.0792Z" fill="white" fill-opacity="0.34"/>
</g>
<mask id="mask1_1106_778" style="mask-type:luminance" maskUnits="userSpaceOnUse" x="0" y="0" width="65" height="29">
<path d="M64.9753 0H0.398926V28.7276H64.9753V0Z" fill="white"/>
</mask>
<g mask="url(#mask1_1106_778)">
<path d="M2.13781 28.567C3.01217 28.567 3.62908 28.1007 3.62908 27.3234V27.3137C3.62908 26.624 3.17733 26.3082 2.29325 26.0896C1.4869 25.9002 1.29745 25.7545 1.29745 25.4339V25.4241C1.29745 25.1521 1.55005 24.9287 1.97751 24.9287C2.36126 24.9287 2.73529 25.0793 3.10932 25.361L3.50278 24.8072C3.08018 24.4672 2.59442 24.2826 1.98723 24.2826C1.15658 24.2826 0.563961 24.7781 0.563961 25.4921V25.5019C0.563961 26.2694 1.06429 26.5317 1.95322 26.7454C2.73043 26.9251 2.89559 27.0854 2.89559 27.3817V27.3963C2.89559 27.7072 2.60899 27.9209 2.15724 27.9209C1.64234 27.9209 1.23916 27.7218 0.840842 27.3769L0.398804 27.9015C0.899132 28.3484 1.50147 28.567 2.13781 28.567ZM7.50541 28.5816C8.28748 28.5816 8.76352 28.295 9.2007 27.8432L8.72952 27.3672C8.37006 27.7023 8.0446 27.9015 7.5297 27.9015C6.73306 27.9015 6.15501 27.2409 6.15501 26.4248V26.4102C6.15501 25.5942 6.73792 24.9384 7.5297 24.9384C8.00574 24.9384 8.3652 25.1473 8.70037 25.4581L9.17155 24.9141C8.77323 24.5352 8.30691 24.2632 7.53941 24.2632C6.27645 24.2632 5.38752 25.2347 5.38752 26.4199V26.4297C5.38266 27.6295 6.29102 28.5816 7.50541 28.5816ZM11.2069 28.5087H11.9404V26.7503H13.932V28.5087H14.6655V24.336H13.932V26.0702H11.9404V24.336H11.2069V28.5087ZM16.6279 28.5087H17.3808L17.8083 27.5032H19.7805L20.2031 28.5087H20.9803L19.1441 24.3069H18.4641L16.6279 28.5087ZM18.0755 26.8523L18.7895 25.1813L19.5084 26.8523H18.0755ZM22.9039 28.5087H23.6374V26.8085H25.7407V26.1382H23.6374V25.0015H26.0079V24.336H22.9039V28.5087ZM28.1257 28.5087H28.8592V26.8085H30.9626V26.1382H28.8592V25.0015H31.2346V24.336H28.1306V28.5087H28.1257ZM33.2553 28.5087H33.9888V26.7503H35.9804V28.5087H36.7139V24.336H35.9804V26.0702H33.9888V24.336H33.2553V28.5087ZM38.8367 28.5087H39.5896L40.017 27.5032H41.9892L42.4118 28.5087H43.189L41.3529 24.3069H40.6728L38.8367 28.5087ZM40.2842 26.8523L40.9983 25.1813L41.7172 26.8523H40.2842ZM46.5067 28.5718C47.5948 28.5718 48.2992 27.9452 48.2992 26.7017V24.336H47.5657V26.7405C47.5657 27.508 47.1674 27.8966 46.5165 27.8966C45.8607 27.8966 45.4624 27.4837 45.4624 26.7114V24.336H44.7289V26.7405C44.7289 27.9452 45.4235 28.5718 46.5067 28.5718ZM51.9618 28.567C52.8361 28.567 53.4531 28.1007 53.4531 27.3234V27.3137C53.4531 26.624 53.0013 26.3082 52.1172 26.0896C51.3109 25.9002 51.1214 25.7545 51.1214 25.4339V25.4241C51.1214 25.1521 51.3692 24.9287 51.8015 24.9287C52.1852 24.9287 52.5593 25.0793 52.9333 25.361L53.3268 24.8072C52.9042 24.4672 52.4233 24.2826 51.8112 24.2826C50.9806 24.2826 50.3879 24.7781 50.3879 25.4921V25.5019C50.3879 26.2694 50.8883 26.5317 51.7772 26.7454C52.5544 26.9251 52.7196 27.0854 52.7196 27.3817V27.3963C52.7196 27.7072 52.433 27.9209 51.9812 27.9209C51.4712 27.9209 51.0631 27.7218 50.6648 27.3769L50.2228 27.9015C50.7231 28.3484 51.3254 28.567 51.9618 28.567ZM55.5564 28.5087H58.6798V27.8529H56.2899V26.7308H58.3835V26.0751H56.2899V24.9918H58.6506V24.336H55.5564V28.5087ZM60.9483 28.5087H61.672V25.5407L63.9745 28.5087H64.5866V24.336H63.8677V27.2214L61.6332 24.336H60.9531V28.5087H60.9483Z" fill="white" fill-opacity="0.34"/>
</g>
</g>
<defs>
<clipPath id="clip0_1106_778">
<rect width="64.693" height="28.9413" fill="white" transform="translate(0.398193)"/>
</clipPath>
</defs>
</svg>
