<svg width="57" height="27" viewBox="0 0 57 27" fill="none" xmlns="http://www.w3.org/2000/svg">
<path d="M47.1408 17.0411L43.6581 13.1552L43.5635 13.0501H42.7526V18.9101H43.7865V14.8503L47.4304 18.9064H48.1737V13.0459H47.1398L47.1408 17.0411Z" fill="white" fill-opacity="0.34"/>
<path d="M33.909 13.0518H32.8752V18.9134H37.4401V17.9236H33.909V13.0518Z" fill="white" fill-opacity="0.34"/>
<path d="M40.1503 13.0518H39.1164V18.9118H40.1503V13.0518Z" fill="white" fill-opacity="0.34"/>
<path d="M53.2923 15.5573V16.5034H55.0141V17.6524C54.4407 18.065 53.2025 17.9946 53.2025 17.9946C52.0593 17.9946 51.0043 17.5058 51.0043 16.0436C50.9962 15.7567 51.0481 15.4712 51.1569 15.2056C51.2657 14.9401 51.4288 14.7002 51.6358 14.5015C51.8428 14.3028 52.0892 14.1496 52.359 14.0518C52.6288 13.954 52.9162 13.9138 53.2025 13.9337C53.8693 13.9134 54.5295 14.0722 55.1141 14.3937L55.5391 13.4796C54.8181 13.106 54.0137 12.9218 53.2018 12.9445C51.2313 12.9445 49.9694 14.0888 49.9694 16.0456C49.9694 18.0024 51.3475 18.9854 53.2018 18.9854C55.2054 18.9854 56.0478 18.2138 56.0478 18.1544V15.561H53.2918L53.2923 15.5573Z" fill="white" fill-opacity="0.34"/>
<path d="M5.62448 15.8175C5.80054 15.6884 5.94045 15.5161 6.03075 15.3173C6.12104 15.1185 6.1587 14.8998 6.14011 14.6822C6.14011 13.5012 5.50254 13.0449 4.13386 13.0449H0.815155V18.9075H4.51546C6.10699 18.9075 6.46598 18.034 6.46598 17.111C6.46793 16.8368 6.38924 16.568 6.23972 16.338C6.09022 16.1081 5.87594 15.9271 5.62448 15.8175ZM1.82749 13.9706H4.09443C4.71938 13.9706 5.11989 14.2207 5.11989 14.7064C5.1326 14.8134 5.1208 14.9219 5.08537 15.0237C5.04993 15.1254 4.9918 15.2178 4.91537 15.2938C4.83894 15.3698 4.74621 15.4273 4.64423 15.4622C4.54224 15.497 4.43369 15.5082 4.32675 15.4948H1.82749V13.9706ZM4.51597 17.9815H1.82749V16.4214H4.37616C4.93225 16.4214 5.41002 16.5434 5.41002 17.2072C5.41002 17.871 4.84658 17.9815 4.51597 17.9815Z" fill="white" fill-opacity="0.34"/>
<path d="M13.7208 14.7616C13.7208 13.3566 12.6281 13.0518 11.6116 13.0518H8.37012V18.9118H9.40401V16.4971H10.9377L12.4494 18.9075H13.6693L12.1004 16.4976C12.3229 16.4973 12.5429 16.4514 12.7468 16.3627C12.9508 16.2739 13.1344 16.1441 13.2862 15.9815C13.438 15.8189 13.5549 15.6269 13.6294 15.4173C13.704 15.2077 13.7347 14.985 13.7198 14.7631M9.40401 15.5515V13.9952H11.6253C12.0168 13.9952 12.6896 14.1003 12.6896 14.8419C12.6896 15.4669 12.0778 15.5521 11.6189 15.5521H9.40455" fill="white" fill-opacity="0.34"/>
<path d="M16.7311 16.4573H19.5642V15.5112H16.7311V14.0395H20.6359V13.0508H15.6952V18.9067H20.6395V17.9174H16.729L16.7311 16.4573Z" fill="white" fill-opacity="0.34"/>
<path d="M23.5756 13.0518H22.5417V18.906H23.5756V13.0518Z" fill="white" fill-opacity="0.34"/>
<path d="M25.4887 14.0384H27.6726V18.9104H28.7065V14.0384H30.8899V13.0498H25.4887V14.0384Z" fill="white" fill-opacity="0.34"/>
<path d="M31.6006 2.06293C30.9289 1.74493 29.978 1.90523 29.1108 2.2206V2.21746C29.1879 1.70173 29.1473 1.17524 28.992 0.677429L28.0012 0.955984C28.0888 1.5388 28.1108 2.12959 28.0669 2.7173C25.4983 4.2032 23.7675 6.68879 23.2897 8.36023C22.7693 10.181 24.2205 10.7996 25.4415 9.90341C28.4559 7.69111 29.0682 2.65686 29.0682 2.65686C29.4034 2.51989 29.7677 2.46984 30.1273 2.51138C30.487 2.55291 30.8303 2.6847 31.1254 2.89445C32.1934 3.81426 30.8074 5.22815 30.8074 5.22815C30.533 4.94821 30.1661 4.77777 29.7752 4.74878C28.6956 4.65154 28.1458 5.94821 29.5802 6.08696C29.9588 6.09386 30.3354 6.03114 30.6913 5.90196C30.931 6.34559 30.8584 8.40018 29.4714 9.00777C28.2256 9.55336 27.7631 8.78756 27.7631 8.78756C27.5094 9.05843 27.2969 9.36516 27.1324 9.69792C27.3778 10.0041 27.7146 10.2238 28.0937 10.325C28.4728 10.4262 28.8743 10.4035 29.2395 10.2603C29.7041 10.0937 30.1244 9.82298 30.4682 9.46885C30.8119 9.11473 31.07 8.68658 31.2227 8.21724C31.3987 7.82008 31.4853 7.38905 31.4762 6.95471C31.4671 6.52032 31.3626 6.09326 31.1702 5.70381C33.0676 4.37875 32.789 2.5775 31.6011 2.06556M25.0268 9.54445C23.9714 9.82722 24.2515 7.51139 25.5907 5.66175C26.9573 3.77692 28.0265 3.21086 28.0265 3.21086C27.7952 5.96294 26.1511 9.24326 25.0274 9.54391M29.268 5.57661C28.9626 5.38844 29.2627 5.10724 29.5471 5.10724C29.8731 5.13972 30.1791 5.27927 30.4174 5.50408C30.4174 5.50408 29.629 5.79895 29.268 5.57661Z" fill="white" fill-opacity="0.34"/>
<path d="M21.9123 21.8815H21.0787V26.1894H21.9123V21.8815Z" fill="white" fill-opacity="0.34"/>
<path d="M30.8252 23.9477L30.7264 23.8757L30.8158 23.7916C31.0119 23.6129 31.1357 23.3685 31.1637 23.1046C31.1815 22.957 31.1673 22.8073 31.1219 22.6657C31.0766 22.5241 31.0012 22.3939 30.9009 22.2841C30.4529 21.9469 29.9074 21.7646 29.3467 21.7646C28.7859 21.7646 28.2405 21.9469 27.7925 22.2841C27.6923 22.3939 27.6168 22.5241 27.5714 22.6657C27.5261 22.8073 27.5119 22.957 27.5297 23.1046C27.5586 23.3669 27.6818 23.6098 27.8765 23.7879L27.9659 23.872L27.8671 23.9441C27.7993 23.9917 27.7366 24.0463 27.68 24.1069C27.5692 24.2301 27.4858 24.3755 27.4356 24.5333C27.3852 24.6912 27.3692 24.858 27.3883 25.0226C27.4408 25.6223 27.9812 26.2635 29.3414 26.2635H29.3451C30.7059 26.2635 31.2468 25.6223 31.2994 25.0221C31.3184 24.8576 31.3024 24.6909 31.2521 24.5332C31.2019 24.3754 31.1188 24.2301 31.0081 24.1069C30.952 24.0469 30.8901 23.9926 30.8231 23.945M30.4131 23.0242C30.389 23.2586 30.0494 23.4973 29.3456 23.4973C28.6419 23.4973 28.3039 23.2608 28.2791 23.0268C28.2722 22.9841 28.2751 22.9404 28.2874 22.8989C28.2996 22.8574 28.3211 22.8192 28.3501 22.7871C28.6522 22.61 28.996 22.5166 29.3461 22.5166C29.6963 22.5166 30.0401 22.61 30.3422 22.7871C30.3713 22.8189 30.3929 22.8569 30.4052 22.8983C30.4175 22.9396 30.4202 22.9832 30.4131 23.0258M28.2345 24.6168C28.5567 24.3872 28.9516 24.2829 29.3451 24.3235C29.7367 24.2971 30.1261 24.4004 30.4531 24.6174C30.4936 24.6636 30.5231 24.7182 30.5398 24.7773C30.5564 24.8364 30.5596 24.8985 30.5493 24.959C30.5136 25.3679 29.9023 25.5129 29.3404 25.5129C28.7785 25.5129 28.1719 25.3679 28.1367 24.959C28.1262 24.8985 28.1294 24.8364 28.1459 24.7773C28.1625 24.7182 28.192 24.6636 28.2324 24.6174" fill="white" fill-opacity="0.34"/>
<path d="M35.1061 24.5685V21.8815H33.143L31.9088 24.57L31.9035 25.3206H34.3534V26.1868H35.1061V25.3206H35.5981V24.5679L35.1061 24.5685ZM32.7372 24.5685L33.6234 22.6395H34.3534V24.5685H32.7372Z" fill="white" fill-opacity="0.34"/>
<path d="M26.3073 23.9476L26.2085 23.8756L26.2978 23.7915C26.4941 23.6129 26.6179 23.3684 26.6458 23.1045C26.6636 22.9569 26.6495 22.8072 26.6041 22.6656C26.5587 22.524 26.4833 22.3938 26.383 22.284C25.9349 21.9469 25.3893 21.7646 24.8285 21.7646C24.2677 21.7646 23.7222 21.9469 23.274 22.284C23.1738 22.3939 23.0984 22.524 23.0531 22.6656C23.0077 22.8072 22.9935 22.9569 23.0113 23.1045C23.0397 23.3668 23.1628 23.6098 23.3576 23.7878L23.4465 23.8719L23.3476 23.944C23.2798 23.9917 23.2171 24.0462 23.1605 24.1068C23.0496 24.2299 22.9662 24.3753 22.916 24.5332C22.8658 24.6911 22.8499 24.858 22.8693 25.0225C22.9219 25.6227 23.4606 26.264 24.8225 26.264H24.8262C26.187 26.264 26.7273 25.6227 26.7798 25.0225C26.799 24.858 26.7829 24.6912 26.7327 24.5334C26.6825 24.3755 26.5993 24.2301 26.4887 24.1068C26.4327 24.0467 26.3706 23.9925 26.3036 23.945M25.8942 23.0236C25.8695 23.258 25.53 23.4966 24.8267 23.4966C24.1234 23.4966 23.7844 23.2602 23.7597 23.0262C23.7527 22.9835 23.7555 22.9397 23.7678 22.8983C23.7801 22.8567 23.8015 22.8186 23.8307 22.7865C24.1327 22.6095 24.4764 22.5161 24.8265 22.5161C25.1765 22.5161 25.5202 22.6095 25.8221 22.7865C25.8516 22.8182 25.8734 22.8561 25.8859 22.8974C25.8983 22.9389 25.9012 22.9825 25.8942 23.0252M23.7151 24.6167C24.0367 24.3846 24.4329 24.2799 24.8272 24.3229C25.2187 24.2967 25.6081 24.4 25.9352 24.6167C25.9756 24.6631 26.0051 24.7178 26.0218 24.777C26.0384 24.8362 26.0416 24.8983 26.0314 24.9589C25.9962 25.3678 25.3843 25.5129 24.8225 25.5129C24.2606 25.5129 23.6535 25.3678 23.6183 24.9589C23.6079 24.8984 23.6111 24.8363 23.6277 24.7772C23.6442 24.7182 23.6737 24.6636 23.714 24.6173" fill="white" fill-opacity="0.34"/>
</svg>
