<svg width="28" height="20" viewBox="0 0 28 20" fill="none" xmlns="http://www.w3.org/2000/svg">
<path fill-rule="evenodd" clip-rule="evenodd" d="M11.8579 4.31863C10.6993 6.69443 9.7436 8.67681 9.73407 8.72388C9.71995 8.79385 10.5181 9.47011 10.8657 9.68277C10.929 9.72143 11.4075 8.85601 12.4587 6.8015C13.2851 5.18635 13.9786 3.86603 13.9998 3.86736C14.021 3.86878 15.3651 6.69614 16.9868 10.1504L19.9352 16.4309H22.73H25.5249L25.5715 16.1814C25.597 16.0442 26.1584 13.1081 26.8189 9.65674C27.4794 6.20539 28.0108 3.3697 27.9998 3.35521C27.9842 3.33461 20.6888 9.0442 20.3984 9.30429C20.3283 9.36705 20.8326 10.5051 20.985 10.6284C21.0293 10.6642 21.9987 9.97989 23.3512 8.95817C24.6114 8.0062 25.6522 7.25276 25.664 7.28391C25.6814 7.33001 24.632 13.0476 24.3433 14.4791L24.2646 14.8695H22.5464H20.8281L17.4332 7.43523C15.566 3.34636 14.0216 0.000520591 14.0013 1.04523e-07C13.981 -0.000520382 13.0164 1.9429 11.8579 4.31863ZM0.0409298 3.66043C0.128959 4.0888 2.47101 16.3708 2.47101 16.4043C2.47101 16.419 3.7304 16.4309 5.26963 16.4309H8.06823L8.41089 15.589C8.59937 15.1259 8.75355 14.7298 8.75355 14.7087C8.75355 14.662 7.59557 13.7542 7.53592 13.7542C7.51249 13.7542 7.3796 14.0051 7.24072 14.3118L6.98808 14.8695H5.36578C3.7446 14.8695 3.74349 14.8693 3.70343 14.7022C3.63373 14.4119 2.32319 7.37812 2.32319 7.29462C2.32319 7.25083 4.82608 9.19291 7.88508 11.6104C10.9441 14.0279 13.5714 16.1042 13.7236 16.2242L14.0003 16.4426L15.4105 15.2657C16.1862 14.6184 16.8727 14.0483 16.9361 13.9989C17.038 13.9196 17.0147 13.8374 16.7363 13.2926C16.563 12.9534 16.3971 12.6491 16.3676 12.6162C16.3381 12.5832 15.7939 12.9939 15.1582 13.5287L14.0023 14.5011L7.02024 8.92278C3.18005 5.85466 0.0241507 3.34442 0.00700304 3.34442C-0.0100707 3.34442 0.00515634 3.48667 0.0409298 3.66043ZM2.8677 18.3456C2.8881 18.4171 2.95906 18.7601 3.02536 19.1077C3.09165 19.4553 3.16261 19.7983 3.18301 19.8699C3.21812 19.993 3.79685 20 14.0013 20C24.2058 20 24.7845 19.993 24.8196 19.8699C24.84 19.7983 24.911 19.4553 24.9773 19.1077C25.0436 18.7601 25.1145 18.4171 25.1349 18.3456C25.1701 18.2221 24.6049 18.2155 14.0013 18.2155C3.39772 18.2155 2.83252 18.2221 2.8677 18.3456Z" fill="#F5B943"/>
</svg>
